<svg width="341" height="460" viewBox="0 0 341 460" fill="none" xmlns="http://www.w3.org/2000/svg">
<path d="M219.63 1.44384C220.349 1.91755 221.068 2.39111 221.787 2.86482C224.044 4.6912 226.383 6.41089 228.609 8.28056C229.954 9.40985 231.617 10.147 232.868 11.4258C233.957 12.5606 235.059 13.6821 236.5 14.3905C237.347 15.1621 238.386 15.7102 239.108 16.6264C239.538 17.8141 240.89 18.2036 241.431 19.2937C242.071 19.8101 242.86 20.013 243.623 20.1799C244.82 20.4429 245.299 21.4178 245.862 22.2737C246.265 22.887 245.797 23.4283 245.26 23.701C244.212 24.2315 243.914 25.0413 243.957 26.1633C243.991 27.0447 243.685 27.9132 243.293 29.0264C244.481 28.3829 245.622 27.8078 246.063 27.014C246.819 25.6505 248.039 25.4203 249.208 24.9168C250.629 24.1711 251.146 25.3421 251.835 26.149C252.285 27.7032 251.829 28.9874 250.505 29.8559C249.739 30.358 249.438 30.9268 249.579 31.8456C250.424 31.4737 250.896 30.804 251.375 30.1063C252.202 28.9009 252.973 28.7923 254.15 29.6882C255.396 30.6377 256.688 31.3791 258.348 31.2531C259.179 31.19 260.022 31.402 260.15 32.3969C260.27 33.3231 259.576 33.8184 258.824 34.161C258.123 34.4802 257.371 34.3526 256.633 34.3218C255.957 34.2925 255.768 34.59 256.065 35.2016C256.343 35.774 256.703 36.2961 257.028 36.8404C257.271 37.2484 257.578 37.7622 257.119 38.1356C255.946 39.0901 257.102 39.4256 257.561 39.9077C257.937 40.3033 258.446 40.623 258.925 40.07C259.483 39.4245 259.447 38.7234 258.902 38.0571C258.702 37.8118 258.483 37.5789 258.34 37.2932C257.936 36.4938 258.081 35.7367 258.608 35.0712C259.12 34.4243 259.823 34.4636 260.48 34.7954C261.235 35.1762 261.959 35.2792 262.761 34.9601C263.51 34.663 264.215 34.8825 264.879 35.2789C268.283 37.3879 271.532 39.7185 274.762 42.0762C276.249 43.9466 278.462 44.8244 280.358 46.1283C286.72 50.5058 293.11 54.8434 299.426 59.2875C306.157 64.0231 312.893 68.7524 319.688 73.3962C320.516 73.9615 321.253 74.655 322.105 75.1949C322.514 75.4536 322.934 75.8337 322.865 76.3332C322.703 77.4873 323.203 77.6723 324.2 77.494C324.705 77.4045 325.254 77.4939 325.765 77.6722C327.135 78.1501 327.525 78.84 326.958 80.1838C326.446 81.3985 326.371 82.2916 327.916 82.6752C328.456 82.8099 328.773 83.2359 329.024 83.738C329.367 84.4225 329.91 84.1626 330.376 83.8953C330.901 83.5947 330.68 83.2047 330.432 82.8224C330.077 82.276 329.297 81.6297 329.961 81.0674C330.578 80.5426 331.351 81.1304 331.938 81.6121C332.225 81.8464 332.515 82.0771 332.811 82.2991C332.934 82.393 333.043 82.5036 333.14 82.6234C333.745 83.4657 334.138 84.341 333.738 85.4162C333.556 85.9088 333.708 86.5743 334.228 86.5419C335.353 86.4723 336.482 86.8887 337.572 86.5847C339.135 86.1479 339.836 86.3912 340.778 87.921C340.109 89.3337 338.87 89.5423 337.345 89.3983C337.544 90.401 338.085 91.3082 337.457 92.2812C337.2 92.678 337.799 92.8306 338.097 93.0052C338.575 93.2837 339.138 93.6422 338.698 94.2122C338.2 94.8582 338.32 96.2366 337.053 96.0237C335.808 95.8132 334.341 95.9563 333.619 94.492C332.861 95.008 332.038 95.361 332.142 96.4215C331.432 97.8914 330.775 98.1047 329.467 97.2788C329.245 97.1379 329.033 96.9797 328.802 96.8497C326.406 95.5097 326.249 94.7664 327.919 92.6066C327.69 92.1324 327.112 92.1908 326.771 91.8761C326.196 91.3423 325.764 91.3922 325.541 92.2179C325.325 93.0164 324.506 93.2095 323.983 93.6824C324.076 94.0033 324.313 93.9445 324.508 93.9179C325.228 93.8215 326.048 93.4965 326.396 94.4841C326.708 95.3724 326.411 96.138 325.692 96.745C325.272 97.0983 324.595 97.3144 324.901 98.0933C325.248 98.978 326.107 99.0916 326.842 98.3532C327.802 97.3894 327.965 97.435 328.361 98.7734C328.6 99.5835 330.275 100.735 331.073 100.546C331.85 100.362 332.517 100.607 333.233 100.81C334.418 101.148 335.045 100.64 334.894 99.5327C334.82 98.9896 334.365 98.3014 335.154 98.0289C335.997 97.7382 336.537 98.297 336.872 99.0451C337.043 99.3878 337.194 99.7835 336.972 100.106C336.071 101.415 335.613 102.867 335.108 104.363C334.761 105.388 334.581 106.326 334.566 107.353C334.558 107.932 334.694 108.581 333.929 108.785C333.146 108.995 332.763 108.475 332.483 107.861C332.239 107.326 331.941 106.831 331.497 106.438C330.762 105.786 330.569 105.048 331.193 104.099C329.755 104.087 328.407 105.117 327.028 104.209C326.846 104.09 326.622 104.306 326.622 104.546C326.621 104.953 326.944 105.02 327.26 105.114C329.467 105.767 331.224 107.126 332.856 108.687C333.295 109.107 333.721 109.559 333.514 110.187C333.28 110.893 332.584 110.418 332.18 110.583C331.442 110.885 330.976 111.611 330.646 112.344C330.433 112.814 330.444 113.453 329.779 113.53C329.031 113.616 328.694 112.997 328.283 112.519C327.783 111.94 327.86 111.135 327.557 110.529C327.358 110.505 327.245 110.557 327.246 110.673C327.252 111.606 328.447 112.719 326.943 113.415C326.026 113.838 325.909 115.199 324.652 115.181C324.084 115.171 324.114 115.611 324.13 116.095C324.192 117.946 323.217 118.787 321.385 118.467C318.676 117.994 316.16 116.879 313.558 116.049C312.74 115.788 311.958 115.681 311.093 115.774C308.86 116.014 306.834 115.037 304.788 114.419C300.141 113.019 295.616 111.233 290.97 109.811C290.642 109.699 290.309 109.604 290.01 109.423C287.725 108.317 285.295 107.561 282.916 106.726C279.371 105.479 275.892 104.066 272.365 102.776C267.306 100.926 262.273 99.0002 257.287 96.9615C255.935 96.408 254.658 95.6748 253.171 95.3939C253.144 95.9289 253.529 96.0629 253.805 96.2785C256.606 98.7589 259.336 101.32 262.134 103.806C268.321 109.302 274.483 114.826 280.862 120.106C285.748 124.151 290.91 127.814 296.332 131.04C299.896 133.16 303.701 134.932 307.398 136.86C308.716 137.547 309.997 138.262 310.887 139.516C311.326 140.134 311.963 140.525 312.674 140.784C313.173 140.966 313.673 141.153 314.079 141.504C316.578 143.67 319.4 145.424 321.883 147.611L321.885 147.613C322.93 148.616 324.392 149.053 325.363 150.158C325.865 152.084 325.535 152.418 323.631 151.876C323.416 151.815 323.17 151.693 323.066 151.901C322.454 153.132 321.103 153.026 320.122 153.583C318.919 154.268 317.945 155.131 318.239 156.733C318.451 157.892 317.67 158.613 317.016 159.357C316.278 160.196 315.947 160.958 316.698 162.028C317.372 162.989 317.183 164.097 316.477 164.988C315.814 165.823 314.963 165.412 314.151 165.109C313.104 164.718 312.446 165.151 312.48 166.382C312.517 167.696 312.376 169.04 312.756 170.325C313.119 171.549 312.886 172.41 311.533 172.745C311.329 172.795 311.515 172.652 311.389 172.797C309.804 174.613 307.648 174.743 305.45 175.035C303.65 175.275 303.11 176.452 303.448 178.312C303.542 178.832 303.553 179.386 303.852 179.836C304.539 180.876 304.531 181.867 303.907 182.955C303.372 183.887 303.27 184.845 304.269 185.652C304.886 186.15 304.883 186.839 304.619 187.54C304.487 187.886 304.278 188.23 304.3 188.597C304.386 189.986 304.353 190.89 302.374 190.437C301.415 190.218 300.294 191.304 299.341 191.955C298.605 192.457 298.026 192.561 297.454 191.765C297.168 191.365 296.795 191.027 296.247 191.262C295.753 191.474 295.501 191.957 295.581 192.428C295.884 194.218 294.363 195.396 294.116 197.01C294.01 197.698 293.273 197.814 292.688 197.537C291.43 196.941 290.279 196.863 289.146 197.827C288.599 198.292 288.046 198.006 287.594 197.561C286.46 196.448 285.382 195.33 283.56 195.376C282.771 195.395 282.513 194.594 282.508 193.842C282.506 193.379 282.747 192.934 282.686 192.428C282.043 192.508 281.556 192.871 281.397 193.312C280.928 194.62 280.051 194.916 278.799 194.69C278.061 194.555 277.493 194.952 276.952 195.424C276.323 195.973 275.646 196.09 274.974 195.442C272.788 193.334 270.142 192.067 267.217 191.413C265.471 191.023 264.11 190.178 263.048 188.757C262.561 188.105 262.122 187.328 261.121 188.401C260.402 189.172 258.838 188.851 258.561 187.905C258.173 186.578 257.282 185.922 256.082 185.399C256.57 186.474 256.171 187.052 255.039 186.671C253.156 186.036 250.828 186.239 249.714 184.016C249.547 183.684 249.134 183.498 248.758 183.53C246.496 183.725 244.497 182.183 242.21 182.554C241.825 182.617 241.441 182.474 241.214 182.164C240.515 181.208 239.721 181.366 238.869 181.9C238.046 182.055 237.41 181.509 236.677 181.325C236.519 181.265 236.369 181.186 236.228 181.092C229.985 177.418 223.296 174.626 216.855 171.347C212.573 169.167 208.185 167.198 203.963 164.86C204.442 165.408 204.916 165.954 205.468 166.429C205.602 166.523 205.724 166.63 205.84 166.743C211.381 171.924 216.811 177.234 222.969 181.712C223.101 181.796 223.227 181.889 223.345 181.991C228.09 185.713 232.805 189.475 237.909 192.712C238.451 193.056 238.934 193.475 239.322 193.978C240.092 194.975 241.133 195.556 242.236 196.105C243.546 196.757 244.968 197.337 245.407 198.981C245.49 199.292 245.706 199.612 246.021 199.666C247.731 199.954 248.577 201.464 249.874 202.329C250.443 202.709 250.706 203.271 250.826 203.916C251.058 205.166 251.803 205.868 253.062 206.036C253.272 206.065 253.482 206.104 253.682 206.173C254.371 206.413 255.317 206.526 255.301 207.431C255.284 208.391 254.302 208.337 253.608 208.507C253.455 208.544 253.218 208.492 253.148 208.581C252.174 209.796 251.178 209.115 250.075 208.759C248.817 208.355 248.413 207.39 247.977 206.362C247.649 205.586 247.121 204.902 246.967 204.043C246.85 203.388 246.593 202.79 245.802 202.745C245.054 202.703 244.293 202.711 243.787 203.407C243.508 203.791 243.314 204.231 243.033 204.619C242.786 204.96 242.765 205.206 243.175 205.531C244.43 206.526 244.304 207.434 242.79 208.069C241.902 208.442 241.085 208.911 240.279 209.416C240.016 209.581 239.721 209.79 239.845 210.166C239.942 210.459 240.264 210.43 240.51 210.511C241.881 210.963 243.313 211.011 244.727 211.122C245.752 211.203 246.508 210.628 247.1 209.788C247.881 208.683 248.682 208.574 249.725 209.441C250.891 210.412 251.365 211.785 251.54 213.214C251.657 214.167 250.977 214.35 250.162 214.1C249.408 213.87 249.234 213.143 248.822 212.485C248.407 213.196 248.28 213.92 248.177 214.634C248.065 215.416 247.99 216.195 249.257 215.864C250.158 215.629 250.548 216.194 250.547 217.006C250.546 217.957 250.441 218.873 251.216 219.67C251.668 220.135 251.195 220.647 250.918 221.092C250.596 221.611 249.941 221.964 250.108 222.724C250.4 223.748 250.319 224.678 249.435 225.404C249.305 225.567 249.074 225.728 249.134 225.937C250.113 229.355 247.829 231.638 246.286 234.178C245.925 234.773 245.318 235.124 244.758 235.629C246.333 237.047 248.238 237.8 250.071 238.649C254.467 240.685 258.835 242.792 263.42 244.399C264.521 244.785 265.227 245.703 266.053 246.53C267.441 247.92 268.604 249.744 270.75 250.219C270.867 250.341 270.973 250.472 271.066 250.613L271 250.665C271.783 252.559 271.643 252.889 269.719 253.497C268.582 253.856 267.619 254.68 266.349 254.632C267.999 254.82 269.63 254.922 271.24 255.166C272.181 255.308 272.898 255.892 273.109 256.876C273.272 257.629 272.826 258.058 272.149 258.288C271.264 258.476 270.373 258.687 269.695 259.325C268.281 260.658 266.574 260.374 264.921 260.157C264.361 260.083 264.149 259.89 263.774 260.581C263.207 261.627 262.041 261.675 260.949 261.413C260.126 261.216 259.326 260.919 258.459 261.08C258.065 261.119 257.658 260.928 257.197 261.129C257.311 261.838 257.873 262.284 258.11 262.886C259.064 263.632 260.227 264.008 261.224 264.68C262.379 265.46 262.82 266.558 262.023 267.603C261.25 268.617 261.49 269.411 262 270.336C262.431 271.118 262.816 271.925 263.253 272.708C263.741 273.648 264.162 274.604 264.012 275.705C263.917 276.392 264.4 276.736 264.846 277.111C265.941 278.029 266.141 279.163 265.378 280.328C264.734 281.309 264.823 282.932 263.131 283.064C260.732 282.49 258.291 282.124 255.88 281.6C252.745 280.919 249.575 280.39 246.464 279.588C246.103 279.495 245.735 279.458 245.465 279.172C245.233 278.238 244.69 277.892 243.727 278.188C243.278 278.326 242.788 278.325 242.327 278.461C241.613 278.605 241.112 278.068 240.494 277.899C239.195 277.396 237.807 277.141 236.563 276.49C236.284 276.3 236.101 276.032 235.958 275.733C235.371 274.392 234.779 274.851 234.184 275.731C232.987 276.088 231.933 275.574 230.88 275.152C230.056 274.821 229.213 274.557 228.369 274.285C225.815 273.507 223.324 272.537 220.731 271.897C220.552 271.909 220.374 271.897 220.196 271.873C218.3 271.717 216.891 270.238 215.05 269.956C213.302 269.688 211.669 269.209 210.224 268.119C209.443 267.529 208.359 267.734 207.489 267.421C203.181 265.867 198.793 264.506 194.686 262.519C196.245 263.848 198.222 264.704 199.794 266.091C203.103 269.012 207.288 270.568 210.761 273.266C213.062 275.053 215.918 276.011 218.573 277.263C221.865 278.815 225.265 280.251 228.325 282.187C231.93 284.466 235.873 285.928 239.654 287.774C240.611 288.241 241.457 288.882 242.289 289.533C243.655 290.601 245.281 290.921 246.919 291.224C247.886 292.573 249.779 292.563 250.793 293.845C252.042 294.506 253.152 295.464 254.686 295.491C255.735 295.509 256.218 296.512 257.021 296.973C257.352 298.321 258.121 299.558 257.921 301.049C257.843 301.632 258.066 302.309 258.928 302.001C260.001 301.618 260.244 302.257 260.37 303.071C260.468 303.716 260.534 304.378 261.393 304.419C262.362 304.465 262.4 303.651 262.605 303.026C262.825 302.359 262.807 301.672 262.611 301C262.321 300.005 262.576 299.338 263.67 299.136C264.278 299.179 264.711 299.553 265.15 299.916C265.544 300.345 265.818 300.907 266.288 301.23C266.954 301.689 267.629 302.299 268.564 301.63C269.398 301.034 270.355 301.223 271.118 301.72C272.06 302.335 272.935 302.863 274.139 302.723C274.689 302.659 275.279 302.948 275.624 303.496C275.788 304.665 274.695 305.319 274.466 306.325C273.978 307.806 274.231 309.276 274.536 310.745C274.557 310.846 274.62 310.937 274.652 311.037C274.908 311.814 275.065 312.613 274.364 313.225C273.531 313.952 273.082 313.004 272.367 312.612C272.313 313.863 272.349 314.9 273.636 315.503C274.144 315.741 274.512 316.245 274.863 316.708C274.952 316.838 275.064 316.976 275.069 317.125C275.108 318.484 275.108 319.836 276.77 320.373C277.026 320.456 277.09 320.889 277.109 321.211C277.089 322.079 276.438 322.364 275.812 322.773C275.143 323.21 274.041 323.258 274.029 324.419C274.092 324.546 274.149 324.673 274.21 324.801C275.037 326.033 275.997 327.162 277.033 328.212C277.842 329.033 277.997 329.784 277.232 330.696C276.541 331.52 276.631 331.79 277.643 332.614C278.643 333.43 279.346 334.494 280.757 334.833C281.249 334.951 281.231 335.728 280.983 336.245C280.708 336.821 280.394 337.381 279.645 337.448C279.297 337.479 278.972 337.151 278.58 337.39C278.86 338.087 279.919 338.437 279.539 339.394C279.19 340.269 278.311 339.746 277.718 340.006C277.562 340.049 277.405 340.069 277.245 340.07C276.445 339.844 275.567 340.046 274.805 339.621C274.111 339.072 273.282 339.35 272.517 339.231C268.45 338.596 264.468 337.572 260.55 336.337C259.696 336.068 258.832 335.883 257.975 335.654C256.815 335.343 256.075 334.77 256.232 333.438C256.275 333.075 256.259 332.698 256.162 332.337C256.05 331.926 255.928 331.448 255.445 331.392C254.874 331.324 254.856 331.894 254.703 332.257C253.766 334.47 253.798 334.293 251.324 333.906C249.106 333.56 247.314 332.037 245.033 331.943C244.465 331.92 243.864 331.471 243.554 330.86C243.255 330.384 243.762 329.567 242.838 329.345C243.373 329.7 243.423 330.246 243.484 330.79C243.265 331.356 242.866 331.424 242.358 331.203C241.12 330.666 239.768 330.495 238.516 330.005C237.558 329.727 236.644 329.292 235.633 329.204C235.223 329.158 234.838 329.024 234.465 328.855C234.19 328.7 233.966 328.481 233.743 328.262C232.695 327.613 233.055 326.309 232.434 325.468C232.311 325.486 232.192 325.512 232.078 325.564C231.545 326.066 231.54 327.036 230.625 327.197C229.475 327.196 228.451 326.838 227.555 326.125C226.538 325.316 225.079 325.668 224.089 324.797C223.408 323.951 223.937 322.845 223.391 321.819C222.782 322.186 222.385 322.971 221.548 322.963C220.764 322.955 220.195 322.449 219.535 322.157C218.852 321.856 218.223 321.888 217.615 322.324C217.321 322.465 217.016 322.502 216.699 322.415C216.139 322.08 215.455 322.081 214.892 321.752C213.798 321.223 212.614 320.954 211.472 320.559C210.693 320.292 209.952 319.93 209.166 319.687C207.578 318.74 205.742 318.466 204.051 317.804C203.144 317.427 202.398 316.866 201.96 315.959C201.902 315.811 201.869 315.653 201.853 315.495C202.262 314.071 200.945 313.903 200.163 313.253C200.356 314.396 199.5 314.657 198.744 315.008C197.742 315.371 196.963 314.453 196.009 314.535C195.766 314.574 195.532 314.534 195.305 314.447C195.156 314.39 195.016 314.314 194.885 314.225C193.812 313.732 192.702 313.359 191.527 313.197C191.286 313.141 191.076 313.03 190.909 312.845C190.448 311.929 190.78 311.206 191.515 310.64C192.453 309.916 192.793 309.167 191.924 308.134C191.374 307.478 191.48 306.928 192.446 306.899C193.136 306.879 193.629 306.564 194.119 306.145C194.608 305.728 195.14 305.367 195.825 305.773C196.018 305.919 196.139 306.112 196.201 306.344C196.485 306.853 195.131 307.379 196.223 307.877C197.361 308.475 197.784 309.24 196.807 310.338C196.594 310.577 196.408 310.84 196.596 311.173C196.706 311.37 196.912 311.459 197.126 311.4C197.543 311.284 197.642 310.93 197.696 310.555C197.805 309.798 197.43 308.991 197.923 308.272C198.653 307.183 199.403 306.106 200.293 304.855C198.12 304.743 196.724 302.886 194.61 302.995C193.844 302.803 193.294 302.368 193.011 301.611C192.919 301.368 192.8 300.992 192.605 300.959C191.051 300.697 191.433 299.041 190.61 298.252C190.239 297.896 190.555 297.486 190.829 297.138C191.479 296.316 192.035 295.499 192.181 294.365C192.339 293.131 194.151 292.827 195.022 293.87C195.431 294.361 195.702 294.656 196.255 294.157C196.357 294.055 196.461 293.957 196.559 293.852C197.264 292.704 196.745 291.837 195.889 291.083C195.374 290.629 194.787 290.249 194.423 289.649C194.051 289.035 194.068 288.413 194.613 287.922C195.197 287.394 195.803 287.567 196.3 288.081C197.438 289.264 198.545 290.487 199.332 291.934C199.948 293.069 200.771 293.733 202.098 293.662C202.97 293.615 203.631 293.933 204.064 294.722C204.269 295.097 204.563 295.5 205.066 295.18C205.771 294.729 206.118 294.004 206.304 293.219C206.424 292.71 206.016 292.609 205.63 292.55C204.701 292.406 204.319 291.792 204.536 290.963C204.84 289.802 204.13 289.552 203.357 289.715C201.023 290.21 200.089 288.694 199.402 286.996C198.982 285.961 198.096 285.866 197.333 285.466C196.124 284.596 195.074 285.506 193.968 285.767C193.291 286.053 193.481 286.564 193.561 287.106C193.831 288.926 192.833 289.938 191.122 289.472C190.113 289.197 189.526 289.23 188.967 290.275C188.401 291.329 185.917 292.11 184.899 291.823C183.339 291.383 182.741 290.25 182.646 288.743C182.63 288.488 182.628 288.213 182.314 288.049C181.756 288.301 181.396 289.498 181.004 289.163C179.645 288.001 177.83 288.606 176.525 287.801C175.549 287.198 175.041 287.259 174.437 288.076C174.021 288.918 173.817 289.864 173.014 290.507C172.293 291.082 172.745 291.776 173.035 292.378C173.454 293.247 173.888 292.511 174.3 292.329C174.598 292.198 174.927 292.035 175.209 292.206C176.742 293.136 177.8 292.375 178.773 291.258C179.442 290.832 180.116 290.394 180.925 290.309C181.616 290.237 182.196 290.519 182.49 291.156C182.767 291.756 182.348 292.248 181.918 292.489C180.753 293.141 180.4 294.221 179.938 295.369C179.207 297.185 177.688 298.376 176.005 299.327C175.727 299.484 175.389 299.572 175.085 299.502C173.668 299.175 172.322 298.941 171.18 300.255C170.873 300.608 170.264 300.376 169.955 299.921C169.649 299.469 169.713 299.014 170.051 298.608C170.493 298.075 171.155 297.799 171.72 297.212C170.787 297.085 170.368 296.711 171.107 295.902C171.214 295.785 171.326 295.669 171.398 295.528C171.636 295.064 171.491 294.617 171.052 294.481C170.469 294.301 170.656 294.921 170.49 295.194C169.482 296.85 168.668 298.636 167.393 300.113C166.402 301.264 165.144 301.349 163.808 300.708C162.372 300.605 161.489 299.896 161.185 298.448C160.964 297.399 160.417 297.077 159.578 297.962C158.743 298.843 157.893 298.81 156.885 298.206C155.949 297.647 154.743 297.569 154.004 296.631C153.741 296.294 153.557 295.915 153.428 295.511C152.732 293.314 153.928 291.985 156.209 292.397C157.051 292.55 157.962 293.228 158.741 292.398C159.835 291.233 160.947 290.06 161.553 288.538C161.486 288.183 161.33 287.874 161.074 287.615C160.243 287.012 159.386 286.835 158.4 287.273C157.43 287.704 156.641 287.391 156.108 286.48C155.709 285.795 155.273 285.129 154.909 284.427C154.205 283.072 154.533 281.788 155.877 281.073C156.724 280.624 156.865 280.082 156.616 279.27C156.432 278.661 156.224 278.006 156.309 277.403C156.542 275.749 155.135 275.334 154.262 274.535C153.854 274.16 153.496 274.631 153.173 274.878C152.325 275.53 151.456 275.541 150.787 274.713C150.139 273.913 150.19 272.98 151.033 272.322C151.983 271.582 151.977 270.806 151.467 269.832C150.92 268.786 150.713 267.78 152.264 267.378C152.54 267.306 152.777 267.153 152.584 266.823C152.421 266.544 152.173 266.333 151.818 266.353C151.648 266.362 151.553 266.513 151.464 266.645C151.096 267.197 150.645 267.765 149.936 267.361C149.33 267.015 149.612 266.331 149.775 265.644C149.087 266.425 148.866 267.051 149.814 267.607C149.953 267.688 150.091 267.875 150.054 267.997C149.564 269.618 150.241 271.323 149.783 272.892C149.536 273.739 149.613 274.35 149.874 275.131C150.605 277.324 152.294 278.961 153.183 281.051C153.41 281.586 153.719 282.086 153.828 282.666C154.139 284.314 153.658 284.987 151.856 285.25C152.147 286.195 152.418 287.162 151.953 288.119C151.612 288.828 151.544 289.376 152.241 290.05C153.173 290.951 152.927 292.567 151.945 293.257C151.542 293.541 150.863 293.841 150.666 293.436C150.105 292.278 149.082 292.48 148.157 292.172C147.217 291.858 146.315 291.215 145.883 290.112C145.421 288.935 144.389 288.08 143.871 286.911C143.631 286.369 143.076 286.466 142.619 286.431C141.612 286.356 140.617 286.234 139.694 285.795C138.69 285.315 138.289 284.532 138.669 283.459C139.01 282.492 140.161 281.915 141.118 282.306C142.087 282.703 142.951 283.283 143.387 281.677C143.536 281.127 144.139 281.182 144.584 281.511C144.991 281.811 145.073 282.309 145.266 282.738C145.342 282.866 145.409 283 145.473 283.135C146.039 284.056 146.804 285.021 147.74 285.262C149.076 285.606 148.617 283.594 149.699 283.378C149.552 282.879 149.166 282.843 148.903 282.843C147.515 282.844 146.447 282.399 145.889 281.024C145.778 280.749 145.485 280.532 145.129 280.526C143.6 280.5 143.389 279.628 143.726 278.379C143.842 277.947 143.73 277.512 143.475 277.167C142.676 276.087 142.168 274.884 141.777 273.607C141.55 272.861 140.963 272.517 140.17 272.614C139.38 272.711 138.486 272.423 138.089 273.579C137.541 275.179 136.754 276.717 138.033 278.317C138.664 279.289 139.281 280.268 139.536 281.422C138.93 282.569 138.301 282.783 137.364 282.123C136.935 281.82 136.578 281.427 136.264 281C135.229 279.586 135.227 279.586 133.573 280.096C133.362 280.123 133.716 280.343 133.602 280.165C133.57 280.113 133.617 280.101 133.733 280.076C134.602 279.89 135.35 280.118 135.736 280.924C136.118 281.717 135.583 282.22 134.919 282.542C134.093 282.942 134.36 283.542 134.56 284.151C135.319 286.447 135.219 286.583 132.854 286.5C131.971 286.387 131.319 285.716 130.469 285.526C129.402 285.169 128.543 284.448 127.624 283.846C126.743 283.27 125.878 282.729 124.811 282.564C124.344 282.493 123.803 282.324 123.646 281.844C123.428 281.182 123.127 281.228 122.482 281.17C121.636 281.093 121.24 280.007 120.693 279.329C120.231 278.758 119.962 278.048 119.644 277.381C118.825 275.663 117.981 273.967 116.2 272.717C116.477 274.459 114.324 274.805 114.258 276.493C114.232 277.154 113.304 276.833 112.75 276.728C112.542 276.689 112.796 276.657 112.599 276.699C112.267 276.77 112.625 276.892 112.616 276.999C113.324 278.46 114.814 279.214 115.727 280.48C115.879 280.885 116.181 281.187 116.437 281.524C116.865 282.088 117.269 282.713 116.676 283.373C116.148 283.963 115.394 284.279 114.662 283.913C112.573 282.868 110.549 281.694 109.167 279.722C108.552 278.846 109.138 277.596 108.323 276.773C107.339 278.682 108.293 280.3 109.176 281.923C109.553 282.616 110.262 282.686 110.946 282.811C111.843 282.973 112.487 283.443 112.182 284.441C111.871 285.457 111.056 285.099 110.323 284.967C109.571 284.83 108.844 283.748 108.192 284.4C107.456 285.134 108.486 285.918 108.74 286.678C108.981 287.398 109.063 288.086 108.859 288.847C108.26 291.076 108.682 292.201 110.558 293.531C111.575 294.251 112.033 295.003 111.07 296.138C110.485 296.828 110.605 297.633 111.139 298.335C111.876 299.306 112.555 300.311 113.15 301.376C113.596 302.174 114.148 302.352 114.941 301.707C115.717 301.077 116.597 300.734 117.527 301.521C117.777 301.732 118.115 301.795 118.431 301.75C118.937 301.678 119.576 301.979 119.922 301.479C120.284 300.959 119.815 300.473 119.571 300.033C118.984 298.974 118.162 298.002 118.643 296.474C117.683 297.374 116.839 298.236 115.995 296.645C115.889 296.444 115.673 296.373 115.45 296.404C114.851 296.485 114.165 296.999 113.691 296.319C113.184 295.593 112.6 294.828 112.59 293.902C112.582 293.093 112.537 292.566 111.497 292.71C110.955 292.785 110.847 292.265 110.835 291.821C110.802 290.653 110.989 289.601 112.224 289.052C113.192 288.622 113.735 287.925 113.529 286.793C113.385 286.007 113.727 285.475 114.445 285.144C115.133 284.825 115.675 285.012 116.125 285.575C116.598 286.166 117.251 286.307 117.959 286.362C118.928 286.438 120.031 286.469 119.798 287.901C119.588 289.189 118.682 289.251 117.486 288.721C117.72 289.92 117.739 290.963 118.428 291.845C119.847 290.555 119.972 290.541 121.142 291.926C121.63 292.505 122.146 292.745 122.775 292.284C123.524 291.737 123.157 291.134 122.652 290.695C121.772 289.929 121.359 289.065 121.667 287.892C121.963 286.763 122.332 286.602 123.279 287.3C124.641 288.302 125.81 289.53 127.11 290.606C127.273 290.741 127.486 290.795 127.683 290.875C128.984 292.009 130.326 293.089 131.662 294.178C133.069 295.903 132.686 298.015 130.723 299.357C129.743 300.029 129.165 299.75 129.092 298.503C129.028 297.412 128.995 296.336 128.285 295.466C127.987 295.527 127.849 295.683 127.911 295.813C128.729 297.54 128.409 298.977 126.885 300.149C126.614 300.358 126.507 300.675 126.75 300.985C127.004 301.309 127.317 301.204 127.598 301.027C128.64 300.369 129.778 299.921 130.967 299.659C132.361 299.35 132.861 299.917 132.451 301.276C132.223 302.022 132.18 302.851 131.548 303.443C131.319 303.658 131.112 303.932 131.358 304.277C131.486 304.457 131.661 304.6 131.886 304.576C132.298 304.532 132.296 304.168 132.387 303.874C132.891 302.26 133.476 300.675 134.192 299.144C134.535 298.408 134.947 297.7 135.977 297.956C136.121 298.016 136.251 298.099 136.366 298.205C137.894 299.866 139.58 301.336 141.543 302.469C142.935 304.197 144.978 305.175 146.501 306.75C147.153 307.588 147.765 308.439 147.162 309.568C148.769 309.87 150.333 309.989 151.611 310.995C151.732 311.09 151.838 311.198 151.934 311.316C153.55 312.801 154.885 314.638 157.066 315.419C157.519 315.585 157.82 315.956 158.183 316.241C158.732 316.951 159.339 317.578 160.132 318.048C161.68 318.966 162.097 320.338 161.031 321.75C160.195 322.86 159.591 323.902 159.769 325.321C159.829 325.805 159.399 326.174 159.139 326.884C160.43 326.204 161.445 326.194 162.205 327.464C162.553 328.046 163.041 327.514 163.415 327.273C164.305 326.701 164.781 326.997 164.962 327.972C164.97 328.706 164.854 329.448 165.117 330.165C165.369 330.853 165.28 331.512 164.947 332.15C164.651 332.719 164.413 333.299 164.597 333.975C164.91 334.315 165.166 333.94 165.444 333.891C166.75 333.656 167.316 334.166 167.17 335.509C167.118 335.982 166.88 336.51 167.575 336.646C168.134 336.756 168.482 336.342 168.637 335.882C169.079 334.561 170.01 333.355 169.579 331.817C169.466 331.412 169.626 330.976 169.825 330.597C170.345 329.606 171.206 329.541 171.705 330.529C172.158 331.428 172.771 332.225 173.217 333.123C174.46 334.802 174.583 335.079 174.552 337.722C174.537 338.907 175.429 339.912 175.042 341.418C175.721 340.562 175.977 339.91 175.742 339.079C175.587 338.527 174.875 337.808 175.742 337.428C176.611 337.049 177.647 336.619 178.548 337.504C178.77 337.722 178.899 338.047 179.232 338.136C179.553 338.222 179.888 338.2 180.109 337.93C180.313 337.681 180.162 337.407 179.975 337.226C179.221 336.495 178.972 335.013 177.336 335.58C176.83 335.755 176.278 335.341 176.134 334.763C175.808 333.457 176.761 332.707 177.524 331.928C178.195 331.245 179.014 331.39 179.693 331.918C180.697 332.696 181.743 333.421 182.712 334.243C183.067 334.653 183.245 335.136 183.205 335.671C183.106 336.942 183.689 337.376 184.896 337.112C185.32 337.02 185.721 337.086 186.04 337.423C186.258 338.63 185.236 340.489 184.164 340.852C183.842 340.961 183.535 340.969 183.263 340.752C182.007 339.751 180.709 340.377 179.399 340.624C180.709 340.571 181.617 341.574 182.795 341.84C183.499 341.999 183.685 342.641 183.885 343.274C184.439 345.024 185.105 345.163 186.279 343.827C186.966 343.046 188.326 342.993 188.676 343.939C189.273 345.553 190.345 344.846 191.319 344.78C191.519 344.766 191.703 344.611 191.894 344.518C192.622 344.217 193.34 343.692 194.121 344.397C194.348 345.145 194.274 345.951 194.63 346.692C194.913 347.28 194.731 348.001 194.091 348.133C192.754 348.409 191.333 349.085 190.04 348.032C189.345 347.466 188.936 347.545 188.632 348.366C188.502 348.718 188.32 349.061 188.005 349.263C186.741 350.071 186.251 351.038 187.196 352.423C187.449 352.794 187.435 353.252 186.968 353.522C186.42 353.838 185.894 353.829 185.348 353.433C184.937 353.134 184.756 352.099 184.097 352.648C183.502 353.144 184.293 353.766 184.475 354.336C184.747 355.193 185.199 355.559 186.118 355.173C186.554 354.99 187.058 355.025 187.529 355.095C188.46 355.234 189.358 355.407 188.575 353.95C188.392 353.608 188.652 353.241 188.95 352.983C189.193 352.772 189.474 352.611 189.779 352.536C190.618 352.328 191.453 351.48 192.306 352.127C193.152 352.769 192.352 353.7 192.382 354.502C192.409 355.188 192.031 355.819 192.063 356.656C192.62 356.347 192.657 355.736 193.035 355.426C193.706 354.968 194.267 354.386 194.435 353.59C194.687 352.396 195.254 351.384 196.228 350.721C197.658 349.749 197.641 348.098 198.308 346.771C199.019 345.723 199.98 345.776 201.015 346.158C201.433 346.459 201.774 346.964 201.533 347.365C200.719 348.719 201.311 350.273 200.711 351.739C201.811 352.075 202.893 351.057 203.927 351.877C204.815 352.581 206.081 352.285 207.07 352.844C206.714 352.422 206.274 352.13 205.784 351.906C205.314 351.692 204.934 351.409 205.184 350.825C205.428 350.254 205.919 350.115 206.493 350.227C206.958 350.316 207.359 350.61 207.835 350.674C208.823 351.581 210.317 351.632 211.226 352.675C211.318 353.374 210.773 353.672 210.349 354.034C209.612 354.664 208.734 355.133 208.668 356.317C208.635 356.913 207.966 356.992 207.443 357.068C206.597 357.05 205.735 356.928 204.962 357.42C204.404 358.736 203.88 360.078 202.053 359.952C201.691 359.927 201.555 360.218 201.476 360.572C201.006 362.661 199.525 363.814 197.252 363.888C196.346 363.918 195.307 363.514 194.755 364.689C196.077 364.803 197.383 365.037 198.701 364.463C199.462 364.131 200.261 364.415 200.94 364.904C201.418 365.249 201.965 365.446 202.506 365.655C202.894 365.805 203.362 365.818 203.255 365.264C202.982 363.85 203.903 363.556 204.929 363.281C205.332 363.173 205.664 362.856 206.107 362.847C207.787 363.351 209.329 365.752 209.002 367.433C208.896 367.977 208.928 368.463 209.11 368.977C209.379 369.734 209.794 370.029 210.525 369.517C211.109 369.108 211.771 369.025 212.46 368.92C214.404 368.623 216.283 368.272 217.221 366.109C217.635 365.153 218.658 364.868 219.648 365.501C220.341 365.945 220.98 366.123 221.671 365.557C222.714 364.744 223.815 364.148 225.218 364.213C225.831 364.241 226.483 364.012 226.748 363.333C227.079 362.489 227.733 362.349 228.52 362.43C232.642 364.52 236.832 366.473 240.944 368.588C243.291 369.795 245.525 371.197 247.852 372.435C249.288 373.198 251.067 373.161 252.331 374.343C252.521 374.522 252.76 374.652 252.983 374.793C254.014 375.45 254.317 376.742 255.153 377.452C255.988 378.162 257.387 377.385 258.453 378.019C258.966 378.325 259.473 378.613 259.698 379.178C259.941 379.791 260.295 380.255 260.879 380.59C261.353 380.861 261.711 381.341 261.648 381.898C261.354 384.456 263.017 386.305 264.068 388.321C265.044 390.194 264.88 391.19 262.835 391.791C261.893 392.069 261.692 392.613 261.983 393.463C262.344 395.467 262.232 395.566 260.34 394.924C260.143 394.856 259.937 394.878 259.734 394.869C259.365 394.88 258.994 394.896 258.625 394.926C256.355 395.109 256.35 395.109 256.386 392.898C256.394 392.449 256.213 392.08 256.002 391.71C255.844 391.434 255.58 391.098 255.679 390.836C256.433 388.834 254.687 388.808 253.651 388.31C252.996 387.996 252.259 387.83 251.566 387.565C250.863 387.296 250.317 386.891 250.333 386.1C250.35 385.275 251.063 385.17 251.683 385.017C253.22 385.265 254.579 383.964 256.338 384.661C256.115 383.808 255.635 383.392 255.076 383.226C253.869 382.868 252.636 382.602 251.346 382.754C250.603 382.841 250.338 383.216 250.41 383.912C250.371 384.488 250.161 384.966 249.636 385.261C248.416 385.442 248.831 386.043 249.284 386.65C250.3 387.317 251.524 387.473 252.592 388.034C253.617 388.571 254.185 389.224 253.803 390.4C253.41 391.609 253.87 392.558 254.691 393.383C255.402 394.098 255.983 394.894 256.42 395.797C256.685 396.362 257.112 396.827 257.404 397.373C257.873 398.251 258.323 399.143 257.768 400.151C257.508 400.624 257.803 400.928 258.06 401.253C258.85 403.481 258.748 403.735 256.621 404.701C255.311 405.296 254.731 406.549 254.132 407.683C253.639 408.615 253.046 408.993 252.062 409.079C250.687 409.197 249.384 409.678 248.05 410.007C247.346 410.18 246.776 410.393 247.289 411.412C247.771 412.368 247.281 412.973 246.24 412.857C245.18 412.74 244.169 412.389 243.335 411.687C242.351 410.858 242.483 410.092 243.673 409.522C244.007 409.361 244.392 409.334 244.72 409.161C245.229 408.893 245.479 408.385 245.04 408.014C244.294 407.385 243.526 406.71 242.376 406.871C241.377 407.01 241.08 407.565 241.036 408.48C241.009 409.084 240.495 409.325 239.956 409.488C238.877 409.816 237.788 409.929 236.671 409.741C235.688 409.51 235.594 410.285 235.296 410.896C234.997 411.513 235.212 411.994 235.69 412.261C236.858 412.913 236.292 414.061 236.534 414.964C236.652 415.404 236.229 415.667 235.741 415.758C233.645 416.149 233.654 416.158 234.232 418.3C234.455 419.123 234.236 419.859 233.709 420.522C232.505 422.038 232.52 424.041 231.658 425.697C231.574 425.859 231.702 426.11 231.722 426.32C231.923 427.366 231.692 428.412 231.738 429.457C231.797 430.817 230.488 431.163 229.879 432.023C229.249 432.455 229.027 433.208 228.521 433.745C227.937 434.365 228.419 434.924 228.751 435.447C229.184 436.128 229.318 436.61 228.361 437.028C227.422 437.438 227.112 438.223 227.76 439.178C228.55 440.394 227.879 441.148 226.929 441.814C226.151 442.256 225.33 442.577 224.457 442.805C223.045 443.173 222.68 444.135 223.342 445.406C224.441 447.522 223.759 449.637 222.831 451.486C222.406 452.333 222.313 453.898 220.758 453.971C219.62 453.435 218.492 452.972 217.199 452.821C215.354 452.605 213.817 451.418 212.064 450.864C209.013 449.901 206.081 448.612 203.054 447.592C201.356 446.586 199.35 446.353 197.603 445.459C197.184 445.245 196.792 445.299 196.452 445.662C196.31 445.814 196.531 445.679 196.349 445.78C195.05 446.498 193.466 446.897 194.104 449.086C194.294 449.737 193.236 450.172 192.429 450.153C191.528 450.132 190.639 450.032 189.899 449.407C190.126 449.614 190.397 449.742 190.563 449.985C191.056 450.701 191.614 451.631 190.805 452.236C189.973 452.857 189.25 452.123 188.793 451.32C188.715 451.182 188.639 451.042 188.348 450.975C187.78 451.666 188.097 452.407 188.316 453.13C189.124 455.792 187.335 459.192 184.726 459.94C183.513 460.288 181.229 459.061 180.823 457.797C180.617 457.155 180.274 456.764 179.729 457.327C178.868 458.219 178.022 457.895 177.12 457.518C175.58 456.602 173.91 455.961 172.305 455.185C166.525 452.391 160.87 449.36 155.203 446.354C154.688 445.936 154.896 445.29 154.719 444.629C153.554 445.498 152.502 444.873 151.429 444.515C150.895 444.164 150.2 444.072 149.808 443.498C149.566 443.221 149.35 442.914 148.995 442.76C145.382 441.189 142.044 439.089 138.571 437.253C137.144 436.498 135.679 435.78 134.274 434.967C132.9 434.171 132.725 432.344 133.928 431.281C134.639 430.655 135.539 430.943 135.608 432.007C135.72 433.753 136.978 433.67 138.389 434.095C136.856 431.832 134.833 430.551 133.113 428.965C132.991 428.73 132.951 428.471 132.889 428.216C132.796 427.837 132.967 427.222 132.41 427.191C131.853 427.16 131.537 427.604 131.33 428.155C130.663 429.938 130.218 429.964 128.872 428.72C127.599 427.543 127.445 426.127 127.69 424.292C126.796 425.206 126.039 425.824 125.197 426.329C124.596 426.69 124.345 427.105 124.91 427.704C125 427.843 125.059 427.993 125.094 428.154C125.154 429.61 124.337 429.41 123.428 429.036C122.409 428.016 120.814 428.008 119.803 426.974C119.595 425.353 118.188 426.03 117.314 425.679C115.68 425.04 114.302 423.921 112.693 423.236C112.55 423.173 112.42 423.088 112.305 422.982C111.74 422.182 110.773 422.082 109.988 421.662C109.857 421.582 109.74 421.485 109.634 421.374C109.197 420.33 108.658 419.795 107.29 419.647C105.625 419.467 104.276 418.043 102.692 417.337C100.707 416.279 98.9316 414.893 97.0113 413.738C95.9559 412.231 94.2006 411.776 92.7317 410.891C92.1902 410.565 91.6601 410.223 91.122 409.891C90.9738 409.811 90.8429 409.711 90.7237 409.594C90.1544 408.606 89.3689 407.887 88.2509 407.559C86.0042 406.9 84.3744 405.259 82.521 403.968C79.9275 402.162 77.2235 400.559 74.9084 398.316C73.7332 397.178 71.9143 396.614 70.4599 395.647C69.2689 394.856 68.4786 393.561 67.0786 393.059C65.5095 392.087 64.2007 390.756 62.5868 389.834C61.452 389.186 60.9777 388.202 61.5311 386.825C61.2276 387.975 60.5917 388.036 59.7323 387.611C58.8739 387.186 58.2102 386.475 57.3613 386.035C55.0224 384.681 52.9411 382.994 50.9197 381.21C49.4162 379.883 47.7112 378.797 46.148 377.533C45.2823 376.834 44.4839 376.062 43.619 375.364C43.1519 374.988 42.884 374.492 42.7525 373.893C42.3283 371.969 40.9925 370.933 39.1795 370.498C36.3753 369.826 35.5961 369.076 35.0869 366.231C34.9997 365.746 34.6365 365.878 34.3796 365.808C33.357 365.529 32.3421 365.234 31.3715 364.806C31.2334 364.737 31.1044 364.653 30.9796 364.565C29.5174 363.772 29.3333 362.081 28.4048 360.91C26.528 361.439 25.862 359.785 24.7773 358.893C24.5315 358.692 24.2705 358.509 24.033 358.297C22.9576 357.016 21.5018 356.139 20.3997 354.887C20.062 354.563 19.7855 354.195 19.5825 353.772C18.0364 352.785 16.7391 351.525 15.5328 350.154C14.2324 348.675 13.0723 347.091 11.9151 345.502C12.0971 344.608 11.9113 344.168 10.8509 343.874C8.80669 343.309 7.39561 341.678 6.11879 340.113C4.30188 337.887 2.22725 335.885 0.51507 333.574C-0.096249 332.625 -0.410928 331.798 1.01996 331.22C1.6916 330.949 1.62395 330.032 2.01534 329.478C2.10349 329.352 2.21072 329.242 2.33304 329.147C3.92542 328.516 5.38852 329.74 7.08836 329.366C7.20845 328.873 6.65535 328.196 7.17371 327.591C7.46902 327.246 7.19133 327.004 6.82208 326.961C5.92453 326.855 5.58675 326.248 5.44394 325.47C5.18267 324.053 4.18118 323.691 2.98148 323.93C1.43015 324.24 0.57043 323.607 0.0827057 322.224C-0.0353012 321.662 -0.0517639 321.114 0.327604 320.63C0.568533 320.255 1.0278 320.026 0.870878 319.415C0.548488 318.161 1.18634 317.107 1.80642 316.119C2.55352 314.929 2.66161 312.191 1.90598 311.076C1.53847 310.532 0.860809 309.948 1.50364 309.278C2.2022 308.549 2.91602 307.638 4.12182 307.864C4.79042 307.989 5.44185 308.219 6.12557 308.285C7.38821 308.67 8.92093 308.204 9.93722 309.523C9.73963 308.623 9.31653 307.819 9.42518 306.908C9.50284 306.264 9.58763 305.557 10.27 305.347C11.2051 305.058 11.5103 304.42 11.4844 303.58C11.4517 302.478 12.4077 302.032 12.8801 301.272C12.8512 301.133 12.824 300.997 12.7872 300.86C12.6605 299.281 12.5998 297.727 13.9925 296.568C14.5998 296.062 14.5882 295.387 14.3928 294.692C14.3207 294.396 14.2738 294.097 14.29 293.791C14.3043 293.002 14.9181 292.27 14.5095 291.441C14.3038 290.941 13.8074 290.636 13.6333 290.116C13.2187 288.439 14.6809 286.999 16.3753 287.45C17.0865 287.638 17.7714 287.931 18.5218 287.671C18.6836 287.644 18.8465 287.64 19.0103 287.659C20.1232 288.338 21.439 287.582 22.5683 288.158C22.7676 288.285 22.9351 288.449 23.0928 288.622C23.7181 289.348 24.5935 289.729 25.409 290.212C24.8988 289.664 24.5047 289.012 23.8473 288.599C22.7143 287.83 22.047 286.631 21.1276 285.664C20.8514 284.829 20.3155 284.197 19.5902 283.711C19.4835 283.61 19.3928 283.496 19.314 283.372C18.8513 282.549 19.1307 281.927 19.9063 281.544C21.3175 280.848 21.3442 279.4 21.6541 278.192C21.9343 277.098 21.0019 276.499 20.0183 277.059C18.8725 277.711 17.3333 277.819 16.7798 279.351C16.6722 279.65 16.2468 279.633 15.9211 279.543C15.783 279.491 15.653 279.42 15.5336 279.333C14.6257 278.603 14.2216 277.427 13.2436 276.757C12.5767 276.222 12.1433 275.544 11.9709 274.702C13.0069 273.342 14.1908 274.466 15.3072 274.524C15.5583 274.536 15.7772 274.756 16.0006 274.898C16.4639 275.192 16.9482 275.432 17.4707 275.067C18.0445 274.667 17.8082 274.125 17.6384 273.631C17.343 272.773 17.0991 271.914 17.2351 270.994C17.2795 270.293 16.9978 269.676 16.7718 269.039C16.5706 268.475 16.4654 267.816 17.1773 267.588C17.864 267.368 18.2029 267.916 18.3877 268.504C18.4971 268.852 18.5502 269.219 18.8949 269.433C19.3888 269.777 19.8083 270.211 20.2861 270.574C21.7659 271.448 21.7877 273.225 22.6997 274.449C23.3231 275.278 24.2249 274.919 25.0242 274.993C25.16 275.033 25.2856 275.094 25.4037 275.171C25.9013 275.717 26.5759 275.81 27.257 275.886C28.0074 276.056 28.6414 276.025 28.7893 275.066C28.8736 274.516 29.1943 274.106 29.6079 273.759C30.3231 273.158 30.9111 272.523 30.5226 271.465C30.4083 271.155 30.5189 270.767 30.8718 270.687C31.7031 270.498 31.5997 269.983 31.4655 269.368C31.3531 268.858 31.5618 268.43 32.0617 268.208C32.4457 268.038 32.8307 268.13 33.0555 268.457C34.0926 269.969 35.1726 269.394 36.2602 268.555C36.5024 268.368 36.8509 268.343 37.0112 268.062C35.1625 266.417 33.7222 264.402 31.9471 262.704C31.3194 262.276 30.6459 262.05 29.8734 262.156C28.9007 262.29 28.224 261.823 27.8877 260.966C27.5965 260.224 27.2212 259.724 26.3833 259.564C25.5494 259.404 25.1257 258.673 24.6432 258.054C23.741 257.327 23.5863 256.254 23.4121 255.227C23.2342 254.183 23.8381 253.659 24.7608 254.128C25.5181 254.514 25.6747 254.115 26.1258 253.696C27.026 252.86 27.8131 252.072 28.0752 250.768C28.2719 249.785 29.2631 249.6 30.4176 250.277C31.4633 250.89 32.4529 251.592 33.6566 251.88C34.7839 252.422 35.6601 253.402 36.9059 253.737C39.1462 255.729 41.606 257.449 43.8963 259.389C46.5945 261.675 49.5082 263.742 52.3291 265.905C55.2903 268.284 58.2047 270.721 61.161 273.107C62.836 274.784 64.8605 276.013 66.7169 277.459C69.0792 279.299 71.7784 280.679 73.9515 282.772C75.0609 283.826 76.3768 284.575 77.7077 285.318C73.9152 281.354 70.0911 277.435 66.1251 273.651C62.8467 270.522 59.7412 267.214 56.4516 264.094C53.826 260.998 51.0878 258.008 48.2833 255.073C47.168 253.906 46.1681 252.572 45.3651 251.168C44.4065 249.493 44.6496 248.948 46.4324 247.901C45.2332 248.161 44.5337 247.874 44.1821 246.813C43.9188 246.022 43.0844 245.699 42.4589 245.25C41.5517 244.601 41.4246 243.894 42.1904 243.163C42.9749 242.416 43.0107 241.794 42.2413 241.049C41.8981 240.717 41.6655 240.283 41.6564 239.783C41.6485 239.345 41.7991 238.702 42.2116 238.799C44.0297 239.226 45.3626 237.239 47.1881 237.891C47.4024 237.968 47.6327 237.848 47.6359 237.59C47.6427 237.07 47.3017 236.741 46.9614 236.386C46.1365 237.753 45.6165 237.813 44.6108 236.705C44.3265 236.392 44.0647 236.059 43.8994 235.661C43.7801 235.357 43.6538 234.969 43.8169 234.735C44.9048 233.181 44.8785 231.354 45.134 229.6C45.4182 227.653 47.3272 227.517 48.4898 226.557C48.8393 226.268 49.2942 226.609 49.6624 226.821C50.0975 227.073 50.556 227.162 51.0341 226.98C51.4905 226.806 51.9323 226.575 51.9548 226.011C51.9747 225.511 51.5928 225.27 51.1974 225.092C50.4673 224.766 49.698 224.572 48.9065 224.463C48.0638 224.347 47.3759 224.025 47.1516 223.108C47.1674 222.098 47.928 221.992 48.6684 221.886C49.3464 221.789 50.0282 221.933 50.7067 221.906C51.1993 221.888 51.6736 221.725 51.8507 221.226C52.0713 220.602 51.4365 220.641 51.1368 220.415C50.332 219.805 50.362 218.928 51.2316 218.383C51.9561 217.929 52.7993 217.819 53.6304 217.694C54.7015 217.602 55.7415 217.683 56.6871 218.265C57.3259 218.657 57.6777 219.189 57.0338 219.789C56.218 220.55 56.3333 221.507 56.289 222.438C56.2192 223.888 56.8663 224.359 58.2337 223.87C58.6829 223.71 59.1979 223.544 59.4475 223.151C60.9739 220.739 63.3061 220.944 65.6899 221.082C67.4048 221.182 67.9216 222.472 68.6301 223.63C68.8368 223.998 69.0986 224.335 69.2953 224.707C69.736 225.541 69.7779 226.363 68.958 226.975C68.1082 227.609 67.2196 227.721 66.405 226.853C66.1591 226.591 65.9653 226.251 65.53 226.202C65.3203 226.543 65.6344 226.663 65.8174 226.76C66.8434 227.309 67.3171 227.932 66.275 228.928C65.9503 229.238 66.0749 229.73 65.9898 230.138C65.8314 230.898 65.3755 231.414 64.5884 231.393C63.7166 231.369 63.6622 230.676 63.7069 230.006C63.7358 229.578 63.8357 229.109 63.2672 228.98C62.6491 228.841 62.4509 229.337 62.2646 229.772C62.0353 230.306 61.8403 230.861 61.8038 231.444C61.7543 232.227 61.4957 232.88 60.8282 233.337C60.4605 233.589 60.1514 233.895 60.3733 234.387C60.6493 235 61.1628 234.787 61.6083 234.666C62.4359 234.441 63.111 234.053 63.6534 233.303C64.6066 231.984 65.6974 230.818 67.6057 231.835C68.0518 232.071 68.6501 231.908 69.1745 231.859C70.7142 231.713 71.3389 230.818 70.5693 229.513C69.4707 227.649 70.1583 225.864 70.4468 224.032C71.847 222.979 72.5281 222.916 73.7645 223.892C74.3122 224.324 74.9895 224.462 75.5336 224.866C75.7358 225.011 75.8919 225.197 76.0149 225.41C76.0934 225.543 76.1596 225.684 76.2195 225.826C76.4733 226.353 76.8601 226.789 77.2121 227.251C78.2545 228.615 78.2742 228.644 76.8951 229.761C76.3493 230.203 76.6707 230.502 76.9464 230.791C77.4909 231.364 78.0815 231.893 78.6492 232.443C79.2455 233.02 79.6934 233.727 79.2362 234.559C78.7846 235.38 77.9742 235.481 77.1639 235.177C76.4575 234.911 76.0563 235.129 75.5241 235.635C74.7 236.418 73.863 237.253 72.7171 237.611C72.0215 237.827 72.0898 238.129 72.5285 238.617C73.8774 240.113 73.86 240.127 72.5445 241.717C71.1526 243.4 71.0189 244.038 71.832 245.153C71.9648 245.336 72.1423 245.429 72.375 245.364C73.3804 244.833 74.2615 244.114 75.2328 243.536C76.7681 242.929 77.6506 242.021 77.2813 240.161C77.0489 238.988 77.9664 237.802 77.3743 236.504C77.1552 236.023 77.8598 235.8 78.3699 235.817C78.849 235.832 79.2939 236.045 79.7663 236.1C81.275 236.276 82.2825 235.434 82.3547 233.941C82.3404 233.789 82.3429 233.639 82.3552 233.487C82.3862 233.169 82.4755 232.865 82.588 232.57C82.958 231.594 82.5534 231.13 81.5822 231.173C80.7172 231.211 80.0697 230.887 79.4706 230.301C77.6117 228.486 77.633 228.161 79.8124 226.654C82.8171 226.484 85.1722 227.859 87.2614 229.826C87.5699 230.116 87.7619 230.602 87.6496 230.995C87.242 232.423 87.8898 233.66 88.1827 234.984C88.5247 236.531 87.8353 237.864 86.8034 239.016C86.4262 239.437 85.8551 239.833 86.2925 240.499C86.6866 241.1 87.3146 240.995 87.8689 240.796C88.5242 240.562 89.2351 240.717 90.0918 240.394C89.0851 238.958 89.0397 237.591 90.3453 236.303C90.8174 235.839 90.4802 235.207 90.2274 234.673C89.8682 233.91 89.3842 233.198 89.1613 232.378C88.8582 231.266 89.4087 230.6 90.5464 230.711C91.3445 230.789 92.1527 231.009 92.7116 231.593C93.6724 232.598 94.8909 233.042 96.1581 233.436C98.1254 234.047 100.128 234.592 101.697 236.044C102.243 236.549 103.051 236.278 103.604 236.731C104.498 237.568 104.082 238.392 103.68 239.309C102.789 241.337 101.407 239.757 100.114 239.656C101.417 241.425 104.316 242.456 105.842 241.831C105.715 241.35 105.262 241.466 104.947 241.356C104.136 241.074 103.733 240.508 103.813 239.673C103.889 238.893 104.433 238.468 105.158 238.305C106.076 238.099 106.941 238.24 107.71 238.826C108.009 239.054 108.339 239.296 108.683 238.928C109.046 238.54 108.904 238.124 108.601 237.793C107.588 236.686 106.874 235.248 105.268 234.785C104.843 234.664 104.578 234.315 104.38 233.927C104.236 233.645 104.124 233.279 103.805 233.204C101.337 232.614 99.6994 230.689 97.6492 229.428C97.1326 229.139 96.7178 228.752 96.4619 228.212C96.2273 227.408 95.7439 226.845 94.9651 226.49C92.3946 225.318 90.5471 223.313 88.8972 221.104C88.5988 220.704 88.2564 220.434 87.8164 220.226C86.4067 219.559 85.231 218.605 84.392 217.275C84.1548 216.9 83.8437 216.653 83.4345 216.494C81.8825 215.885 80.6469 214.812 79.4147 213.735C78.2301 212.312 76.5948 211.343 75.4674 209.861C74.9563 209.103 73.9242 208.896 73.5145 208.029C73.4597 207.887 73.4345 207.738 73.4302 207.585C73.7424 206.347 74.4608 205.268 74.1948 203.811C73.9525 202.48 73.0519 202.016 72.1927 201.37C71.9531 201.19 71.699 201.234 71.4798 201.435C71.4028 201.505 71.348 201.601 71.2714 201.67C68.8728 203.851 69.232 204.372 66.2082 201.727C65.0743 200.293 65.1134 200.341 66.4797 199.232C67.2023 198.645 66.9761 197.593 67.298 196.786C67.3848 196.57 66.962 196.44 66.7036 196.385C66.2798 196.293 66.0564 196.526 65.8007 196.845C64.7774 198.125 64.6719 198.103 63.8701 196.676C63.8587 196.656 64.1024 196.317 63.7057 196.581C62.7482 197.221 62.272 196.882 62.0758 195.717C61.9175 194.778 62.6399 194.026 62.5479 192.928C61.8707 193.183 61.7378 193.685 61.5814 194.217C61.0615 195.988 60.4585 196.164 58.8933 195.037C58.7971 194.913 58.7266 194.776 58.6766 194.627C58.5998 193.244 58.3876 191.858 58.7153 190.478C59.8258 189.661 61.1734 189.234 62.2394 188.345C62.6492 187.778 62.0983 187.487 61.8753 187.111C61.3007 186.142 61.3375 185.157 61.9764 184.279C62.505 183.553 63.2057 183.3 63.9809 184.069C65.4163 185.493 66.3073 185.398 67.5823 183.743C67.7802 183.485 67.9567 183.234 67.9795 182.903C68.0433 182.198 67.7595 181.55 67.6564 180.873C67.4226 179.346 68.0173 178.701 69.5495 178.842C69.9861 178.882 70.3785 178.862 70.7841 178.689C72.2202 178.08 72.2917 177.81 71.2937 176.607C70.21 175.302 70.2871 174.505 71.7789 173.753C72.8325 173.222 72.4444 172.358 72.6092 171.558C71.9229 171.749 71.2464 172.171 70.6646 171.543C70.0593 170.89 70.5352 170.261 70.8302 169.65C71.0379 169.219 71.1877 168.768 71.3399 168.318C71.774 167.034 72.5447 166.127 73.9289 165.781C74.8758 165.544 75.6323 164.985 76.1085 163.962C75.1998 164.853 74.4136 164.936 73.5833 163.919C73.1016 163.329 72.7515 163.893 72.5305 164.313C72.3051 164.739 72.421 165.253 72.2726 165.708C72.099 166.237 71.8356 166.696 71.2104 166.738C70.0249 166.82 68.9892 167.447 68.4179 168.619C67.9679 169.543 67.3986 170.377 66.6158 171.002C65.8235 171.635 65.6138 172.286 66.0312 173.201C66.284 173.756 66.1936 174.342 65.9212 175.076C66.3702 174.755 66.6801 174.331 67.1632 174.57C67.6005 174.786 67.6725 175.208 67.7253 175.639C67.8846 176.93 67.91 178.175 66.8597 179.181C66.4348 179.588 66.317 180.205 65.9764 180.679C65.6971 181.063 65.3567 181.397 65.0839 181.789C64.677 182.371 64.0366 182.55 63.6104 182.015C62.3268 180.404 61.2182 181.465 60.052 182.11C59.5717 182.375 59.1977 183.056 58.5363 182.688C57.8281 182.294 57.7813 181.59 57.9705 180.877C58.1334 180.262 57.8054 180.024 57.2987 179.84C55.3535 179.136 54.7481 177.105 53.3707 175.833C53.1427 175.623 53.1608 175.241 53.1931 174.923C53.3351 173.523 53.107 172.205 52.4816 170.929C52.0452 170.038 52.1937 169.167 53.2737 168.935C54.773 168.612 55.1049 167.439 55.381 166.275C55.816 164.436 56.2716 164.21 57.7022 165.33C59.3858 166.648 60.1482 166.438 60.9629 164.441C61.0432 164.244 61.2168 163.992 61.0072 163.871C59.2418 162.85 60.0102 161.179 59.9038 159.732C59.9042 159.578 59.9217 159.426 59.947 159.275C59.9489 158.977 60.2949 158.602 59.9709 158.409C59.6712 158.232 59.3963 158.543 59.2612 158.848C58.8233 159.844 58.4322 160.758 57.0996 159.703C56.6016 159.31 56.1851 160.01 55.7732 160.302C55.3656 160.59 55.0377 161.213 54.4373 160.854C53.9649 160.573 54.0667 160.03 54.1712 159.55C54.2358 159.25 54.3989 158.874 54.0212 158.713C53.5948 158.531 53.3594 158.881 53.1411 159.196C52.7224 159.799 52.7797 160.994 51.7045 160.798C50.7207 160.619 50.5354 159.502 50.1509 158.728C49.4739 157.365 50.4648 156.285 51.0385 155.209C51.4571 154.424 51.933 153.667 52.3397 152.865C53.3136 150.945 55.0792 149.97 57.0371 149.386C57.9823 149.103 58.6456 149.509 58.6751 150.693C58.7195 152.458 60.0992 153.134 61.5581 152.094C62.4637 151.448 63.624 151.639 64.5062 151.015C64.6533 150.977 64.8022 150.965 64.954 150.972C66.0447 151.16 66.5274 151.889 66.575 152.943C67.3847 152.861 68.0843 152.435 68.7993 152.876C69.7079 153.48 70.6161 154.104 71.2646 154.989C71.8859 155.835 72.9769 155.658 73.7012 156.24C76.5894 158.233 78.9214 160.961 82.1002 162.566C82.5571 163.746 83.7947 163.866 84.6863 164.457C85.1027 164.849 85.4815 165.285 86.0063 165.545C86.6167 166.017 87.1665 166.545 87.5656 167.211C88.0572 167.625 88.7947 167.244 89.2652 167.73C90.2807 168.954 91.834 169.322 93.1026 170.142C93.6475 170.568 94.2894 170.853 94.8119 171.311C94.947 171.381 95.075 171.463 95.1975 171.553C95.984 172.385 97.0796 172.743 98.002 173.369C98.1346 173.446 98.2596 173.534 98.3804 173.628C99.3507 174.404 100.432 175 101.529 175.573C102.238 176.099 102.988 176.557 103.765 176.973C106.89 179.491 110.493 181.259 113.858 183.401C115.022 184.143 116.158 184.876 116.935 186.045C117.054 186.142 117.167 186.247 117.278 186.351C117.545 186.622 117.906 186.719 118.24 186.874C119.527 187.471 119.541 187.543 118.529 188.477C118.306 188.683 117.926 188.851 118.188 189.208C118.413 189.514 118.8 189.381 119.051 189.212C120.705 188.089 122.267 188.751 123.836 189.423C124.219 189.571 124.574 189.756 124.81 190.109C125.811 190.884 126.906 191.561 128.047 192.031C130.361 192.983 132.306 194.508 134.404 195.792C135.334 196.361 135.977 197.28 136.922 197.913C138.919 199.251 141.358 199.203 143.41 200.323C144.509 200.923 145.641 201.539 146.883 201.851C147.613 201.954 148.215 203.328 148.575 202.797C149.113 202.007 147.789 201.751 147.29 201.26C146.439 200.421 145.624 199.537 144.655 198.821C144.355 198.551 144.183 198.222 144.189 197.812C144.651 196.798 144.755 195.994 143.231 195.995C142.635 195.995 142.138 195.668 141.705 195.266C141.591 195.169 141.488 195.063 141.389 194.953C141.01 194.507 140.6 194.035 140.725 193.418C140.94 192.364 140.423 192.012 139.495 191.858C138.449 191.686 137.471 191.304 136.657 190.584C135.893 190.022 135.707 189.232 135.764 188.344L135.791 188.332C135.07 187.515 134.094 186.786 134.804 185.477C135.056 185.134 135.419 184.933 135.801 184.787C136.791 184.41 136.457 183.984 135.866 183.535C135.719 183.357 135.645 183.156 135.659 182.924C135.992 181.973 136.758 181.957 137.465 182.269C138.322 182.648 139.083 182.573 139.897 182.236C140.555 181.964 141.244 182.104 141.929 182.151C142.784 182.209 143.362 181.75 143.555 180.949C143.737 180.194 143.284 179.897 142.573 179.629C141.26 179.135 141.026 177.745 141.89 176.01C141.297 175.641 140.541 175.996 139.969 175.626C139.673 175.486 139.417 175.288 139.158 175.091C138.598 174.608 138.407 173.962 138.337 173.261C138.705 172.289 138.787 171.215 139.378 170.323C140.486 169.458 140.877 168.367 140.461 166.996C140.387 166.752 140.353 166.444 140.437 166.213C140.995 164.678 140.704 163.386 139.551 162.197C138.981 161.608 139.248 160.897 139.811 160.375C140.327 159.898 140.983 159.549 141.666 159.58C143.2 159.647 144.704 159.426 146.219 159.297C146.978 159.489 147.702 159.837 148.534 159.648C149.141 159.511 149.767 159.707 150.129 160.169C151.782 162.281 154.388 163.035 156.391 164.642C156.788 164.961 157.149 165.388 157.873 165.452C156.62 163.822 155.06 162.633 153.839 161.131C153.237 160.39 152.625 159.676 152.193 158.822C151.925 158.293 151.607 157.837 151 157.627C149.757 157.196 149.468 156.324 149.826 155.108C150.187 153.885 149.538 152.946 148.442 152.886C145.594 152.729 143.899 150.916 142.187 149.036C141.313 147.537 139.534 146.734 139.031 144.949C136.729 143.876 135.752 141.448 133.885 139.921C132.94 139.149 132.148 138.188 132.06 136.883C132.007 136.095 131.551 135.526 131.215 134.871C130.755 133.975 130.027 134.194 129.307 134.231C129.032 134.245 128.738 134.153 128.602 133.928C127.761 132.537 126.104 131.854 125.539 130.167C125.214 129.199 124.14 128.605 123.355 127.977C121.392 126.405 120.076 124.294 118.415 122.479C117.767 121.771 117.103 121.134 116.343 120.573C115.1 119.445 113.906 118.298 113.406 116.603C113.227 116 112.623 115.639 112.188 115.192C112.079 115.089 111.979 114.978 111.882 114.864C111.474 114.139 110.295 114.248 110.13 113.258C110.107 112.995 110.154 112.737 110.18 112.475C110.425 110.08 109.316 108.606 107.044 107.611C105.723 107.031 104.306 106.366 103.513 104.98C102.997 104.201 102.26 103.449 103.216 102.49C103.367 102.338 103.438 102.117 103.34 101.909C102.243 99.5798 101.732 97.0571 100.916 94.6355C100.882 94.5328 100.786 94.4717 100.686 94.4317C100.569 94.4581 100.526 94.5342 100.54 94.6619C100.615 95.3825 100.889 96.2717 99.9968 96.5883C98.886 96.9825 98.5331 95.833 97.9007 95.2733C97.2839 94.7371 96.9237 94.032 96.6253 93.2948C96.1951 92.2317 96.1817 91.2269 97.1809 90.4412C97.4878 90.1988 97.62 89.8801 97.7616 89.5337C98.0459 88.8398 98.6589 88.7439 98.8602 89.4296C99.3861 91.2264 101.451 91.5007 102.148 93.4019C102.575 90.6431 104.144 88.778 105.007 86.605C105.21 86.093 105.701 85.8083 106.18 85.5842C107.357 85.033 107.224 84.2691 106.534 83.444C105.792 82.5573 104.973 81.7328 104.426 80.6964C104.348 79.9207 104.641 79.345 105.411 79.1372C106.188 78.9272 106.86 79.1184 107.291 79.8711C107.464 80.1738 107.573 80.6043 108.083 80.3295C108.729 79.4612 108.961 77.832 110.727 79.1528C110.894 77.4637 111.082 75.8899 112.845 75.493C113.901 75.2553 114.635 75.9287 114.959 76.9709C115.187 77.6932 115.573 78.3262 116.054 78.9057C116.368 79.4518 116.807 80.0179 116.407 80.6564C115.928 81.4214 115.181 80.9854 114.086 80.8205C115.321 82.225 115.244 83.5791 114.903 84.9788C114.731 85.6839 115.198 86.0161 115.818 86.2265C116.871 86.5835 117.914 86.2857 118.959 86.2306C119.531 86.2007 119.63 85.7836 119.513 85.3167C119.231 84.1983 119.409 83.1212 119.735 82.046C119.862 81.6297 119.914 81.1205 119.557 80.856C118.598 80.1437 118.229 78.9609 117.326 78.2212C116.679 77.7937 116.185 77.2254 115.773 76.5796C114.901 75.1072 113.704 74.2005 111.897 74.3458C111.225 74.0498 110.732 73.5515 110.313 72.9662C109.608 70.6561 110.147 69.6892 112.42 69.1899C112.785 69.1093 113.135 69.0107 113.329 68.6487C113.553 68.2632 113.686 67.8283 113.96 67.4699C115.331 66.6444 115.541 66.7484 116.41 68.1079C116.823 68.7538 116.725 70.0553 118.105 69.7169C119.197 69.5676 120.323 69.6813 121.382 69.2902C121.891 69.1024 122.484 68.8167 122.429 68.2536C122.357 67.5308 121.634 67.7009 121.148 67.7429C120.27 67.8197 119.642 67.366 119 66.8946C117.406 65.8576 116.935 63.8076 115.28 62.8011C114.929 62.5881 114.979 62.0576 115.207 61.6574C115.7 61.4676 115.407 61.1381 115.341 60.8512C115.173 59.7452 113.735 59.9032 113.427 58.9369C113.137 58.139 113.379 57.6074 114.394 57.3297C113.769 56.8668 113.034 56.5646 113.082 55.7124C113.124 54.9588 113.528 54.4345 114.119 54.036C115.06 53.403 114.236 52.5815 114.366 51.8642C114.805 50.7203 115.583 51.0618 116.262 51.5162C117.854 52.5812 119.676 53.3203 120.765 55.0874C121.328 56.0011 123.087 55.666 123.728 54.7009C124.002 54.2895 123.664 54.1439 123.473 53.9316C122.965 53.3684 122.272 53.1013 121.602 52.7971C121.469 52.731 121.343 52.6515 121.219 52.57C120.794 52.2532 120.267 52.0953 119.874 51.7312C119.279 51.1808 118.89 50.5363 119.483 49.7962C119.908 49.2659 119.95 48.8942 119.367 48.5021C119.007 48.2605 118.627 47.958 118.221 48.2991C117.661 48.7716 118.078 49.2537 118.315 49.7134C118.388 49.8544 118.473 49.9899 118.532 50.1371C118.692 50.5342 118.881 50.9695 118.531 51.3259C118.135 51.7302 117.48 51.6724 117.222 51.3544C116.298 50.2159 114.349 49.9483 114.343 48.0304C113.978 47.4385 113.493 46.7645 114.152 46.1801C114.956 45.4673 115.398 44.0298 116.918 44.5246C117.693 44.7775 118.465 44.7907 119.256 44.6839C121.368 44.6409 122.813 46.0288 124.412 47.087C125.369 47.9931 125.835 49.0583 125.9 50.425C125.959 51.7043 126.787 52.8208 127.16 54.0651C127.516 55.2543 129.579 54.7157 130.399 53.2202C130.749 52.5821 130.935 51.8299 131.734 51.5566C131.985 51.471 132.241 51.4225 132.505 51.4104C134.498 51.5224 136.052 52.6635 137.63 53.6863C138.636 54.3388 138.478 54.8222 137.019 56.0607C137.448 56.4624 138.051 56.0999 138.492 56.401C139.208 56.9851 140.054 57.426 140.918 57.0221C142.479 56.2935 143.72 56.7781 144.923 57.7479C145.346 59.3677 146.937 59.1803 148.039 59.7261C151.776 61.5759 155.218 63.9069 158.701 66.1731C159.17 66.4783 159.687 67.0112 160.206 66.3502C160.713 65.7037 160.995 64.9504 160.322 64.1977C160.106 63.9561 159.782 63.8748 159.52 63.6969C158.915 63.1742 158.837 62.5668 159.221 61.8851C161.52 60.0838 161.045 60.3953 159.418 58.5084C157.672 56.4806 155.588 54.6952 154.636 52.0758C154.582 51.9268 154.531 51.711 154.402 51.6786C152.334 51.1581 151.497 49.1707 149.974 48.0042C149.297 47.4901 148.819 46.8077 148.37 46.1014C147.942 45.0783 146.948 44.4278 146.564 43.3737C146.41 41.8986 145.056 40.7753 145.319 39.1755C145.411 38.4995 146.226 38.2377 146.261 37.5275C146.288 37.2332 146.355 36.9499 146.472 36.6785C147.178 34.8136 148.567 34.1957 150.486 34.3723C151.561 34.4711 152.239 34.9779 152.267 36.0007C152.299 37.1313 151.471 37.488 150.444 37.4802C150.157 37.4781 149.817 37.2916 149.536 37.7424C150.342 38.1928 151.242 38.5774 151.404 39.6538C151.442 39.9068 151.631 40.1594 151.961 40.0855C152.354 39.9972 152.712 39.6991 152.707 39.3499C152.673 37.2615 153.908 35.9523 155.382 34.7575C155.625 34.5614 155.883 34.288 155.727 33.9459C155.507 33.464 155.039 33.5658 154.619 33.5811C152.275 33.6649 151.169 32.8524 150.406 30.4975C150.442 30.2854 150.485 30.0235 150.666 29.9388C151.692 29.4509 152.063 28.8721 151.408 27.7296C151.025 27.0632 151.746 26.5679 152.655 26.8199C154.048 27.2064 154.813 28.6277 154.44 30.1376C154.512 30.2319 154.617 30.2924 154.721 30.2444C156.495 29.444 158.111 29.3375 159.411 31.1437C159.712 31.5616 160.178 31.4247 160.456 30.9762C160.9 30.2617 161.615 29.7495 161.899 28.9077C162.122 28.2493 162.501 27.4904 163.347 27.8492C164.151 28.1905 164.184 28.9896 163.873 29.7636C163.758 30.0507 163.534 30.2974 163.495 30.728C164.678 30.959 165.491 30.1318 166.433 29.8034C166.95 29.6228 166.644 29.2008 166.412 28.9033C166.088 28.4854 165.745 28.0774 165.546 27.5798C165.362 27.1177 165.204 26.52 165.763 26.3308C167.044 25.8974 166.74 24.8797 166.792 23.9709C166.935 22.9997 167.455 22.3382 168.387 22.0026C168.685 21.8953 169.024 21.7688 169.15 21.4774C169.991 19.523 171.522 19.5202 173.238 19.989C173.389 20.0296 173.551 20.0231 173.71 20.0255C174.117 20.1052 174.521 20.1935 174.941 20.1225C175.757 20.2221 176.514 20.5933 177.408 20.3281C177.994 20.1536 178.588 20.5688 179.129 20.9428C180.377 21.8058 181.63 22.6696 182.989 23.3577C183.174 23.4618 183.351 23.5881 183.487 23.7459C184.62 25.0625 185.81 26.2657 187.756 26.1249C187.853 26.1179 187.985 26.1665 188.047 26.2389C189.779 28.2553 192.514 28.0061 194.628 29.1569C195.418 29.7739 196.4 29.9604 197.287 30.3613C202.558 32.6385 207.901 34.7348 213.243 36.8263C213.406 36.8808 213.567 36.9463 213.722 37.018C217.639 39.0653 221.946 40.3225 225.633 42.8549C225.956 43.0767 226.437 43.0656 227.187 43.0701C225.001 41.3552 223.067 39.7751 221.007 38.3529C219.437 36.6899 217.404 35.5684 215.812 33.9312C214.999 32.5569 213.501 31.9657 212.368 30.9566C211.037 29.7723 209.419 28.9354 208.698 27.1102C208.394 26.3404 207.342 26.1588 206.601 25.7928C205.671 25.3344 204.887 24.7537 204.275 23.9293C204.086 23.6752 203.946 23.3474 203.66 23.2118C200.794 21.8528 198.825 19.3108 196.219 17.6064C194.84 16.7047 194.027 15.186 192.695 14.22C192.319 14.0425 191.98 13.8164 191.718 13.4881C189.861 11.4659 187.71 9.7517 185.772 7.81346C185.302 7.34412 184.475 6.99065 184.848 6.1771C185.2 5.41145 186.024 5.63534 186.695 5.70541C187.166 5.75577 187.71 5.66723 188.094 5.92658C189.241 6.7061 190.296 6.26875 191.37 5.80786C191.613 5.78162 191.851 5.80901 192.084 5.87619C192.719 6.12323 193.271 6.55665 193.941 6.72552C194.767 6.93539 195.661 7.67539 196.008 6.00711C196.173 5.2167 197.126 5.43013 197.726 5.90169C199.094 6.97815 200.628 7.48403 202.375 7.49577C203.045 7.50047 203.476 7.28044 203.833 6.77766C204.077 6.49326 204.3 6.18896 204.559 5.91734C205.604 5.29297 206.225 4.16325 207.349 3.61848C208.819 2.90584 209.236 3.10594 209.243 4.70184C209.245 5.28205 209.382 5.72623 209.834 6.08162C210.294 6.44303 210.668 6.8569 210.905 7.41936C211.285 8.32066 211.606 7.89127 211.87 7.31534C212.336 5.60155 213.094 3.95546 212.958 2.11715C212.907 1.43376 213.371 1.06092 213.893 0.779739C215.613 -0.16596 217.804 -0.569489 219.63 1.44384Z" fill="url(#paint0_linear_1_2064)"/>
<defs>
<linearGradient id="paint0_linear_1_2064" x1="192.371" y1="-8.06796" x2="-53.4531" y2="215.7" gradientUnits="userSpaceOnUse">
<stop stop-color="#ACFB01"/>
<stop offset="1" stop-color="#ACFB01" stop-opacity="0"/>
</linearGradient>
</defs>
</svg>
