<svg width="377" height="331" viewBox="0 0 377 331" fill="none" xmlns="http://www.w3.org/2000/svg">
<path d="M373.501 249.084C372.963 249.578 372.426 250.072 371.888 250.565C369.921 252.045 368.025 253.614 366.029 255.059C364.823 255.933 363.875 257.149 362.565 257.914C361.407 258.575 360.257 259.25 359.378 260.289C358.569 260.826 357.905 261.568 357.002 261.973C355.934 262.081 355.337 263.113 354.328 263.333C353.771 263.753 353.443 264.36 353.149 264.953C352.688 265.883 351.786 266.076 350.965 266.362C350.377 266.567 350.026 266.071 349.911 265.572C349.687 264.601 349.08 264.188 348.146 263.992C347.412 263.838 346.758 263.406 345.92 262.854C346.208 263.964 346.45 265.022 347.015 265.549C347.985 266.452 347.926 267.503 348.102 268.57C348.427 269.892 347.356 270.076 346.549 270.476C345.176 270.525 344.21 269.885 343.764 268.616C343.506 267.882 343.098 267.517 342.312 267.443C342.446 268.216 342.902 268.742 343.379 269.28C344.205 270.21 344.137 270.866 343.158 271.65C342.12 272.479 341.245 273.389 341.01 274.78C340.892 275.477 340.546 276.126 339.699 276.026C338.91 275.933 338.644 275.26 338.515 274.57C338.394 273.928 338.653 273.336 338.829 272.735C338.991 272.185 338.785 271.968 338.219 272.086C337.691 272.196 337.186 272.385 336.671 272.539C336.285 272.655 335.799 272.801 335.584 272.347C335.037 271.185 334.524 272.067 334.033 272.344C333.63 272.572 333.262 272.924 333.62 273.433C334.039 274.026 334.624 274.141 335.285 273.83C335.528 273.716 335.765 273.584 336.03 273.525C336.772 273.359 337.367 273.634 337.808 274.205C338.237 274.76 338.061 275.33 337.653 275.802C337.185 276.345 336.952 276.919 337.052 277.645C337.144 278.322 336.819 278.857 336.356 279.322C333.922 281.686 331.336 283.878 328.732 286.048C326.886 286.885 325.71 288.524 324.248 289.815C319.338 294.145 314.456 298.505 309.501 302.784C304.221 307.343 298.946 311.907 293.728 316.538C293.093 317.103 292.37 317.566 291.751 318.156C291.454 318.439 291.055 318.705 290.657 318.545C289.738 318.174 289.484 318.547 289.427 319.404C289.398 319.838 289.212 320.271 288.961 320.655C288.287 321.683 287.638 321.862 286.646 321.117C285.748 320.445 285.027 320.199 284.395 321.391C284.174 321.807 283.758 321.98 283.292 322.083C282.658 322.223 282.761 322.724 282.887 323.162C283.027 323.656 283.394 323.555 283.76 323.431C284.283 323.252 284.975 322.743 285.304 323.405C285.611 324.022 284.968 324.536 284.451 324.92C284.199 325.107 283.95 325.298 283.706 325.496C283.603 325.577 283.49 325.644 283.371 325.7C282.553 326.023 281.751 326.166 280.946 325.615C280.577 325.363 279.997 325.35 279.917 325.785C279.745 326.725 279.171 327.567 279.199 328.527C279.241 329.903 278.897 330.43 277.443 330.889C276.414 330.047 276.495 328.984 276.925 327.759C276.057 327.715 275.199 327.973 274.524 327.256C274.25 326.963 274.002 327.423 273.797 327.632C273.469 327.968 273.059 328.357 272.678 327.878C272.247 327.334 271.086 327.149 271.52 326.15C271.948 325.169 272.129 323.933 273.484 323.642C273.214 322.911 273.091 322.161 272.195 322.027C271.127 321.14 271.085 320.555 272.034 319.649C272.195 319.496 272.369 319.354 272.523 319.191C274.118 317.497 274.763 317.521 276.203 319.342C276.641 319.251 276.711 318.763 277.04 318.548C277.598 318.185 277.645 317.819 277.009 317.466C276.395 317.123 276.403 316.408 276.119 315.881C275.836 315.891 275.836 316.098 275.818 316.264C275.751 316.877 275.851 317.618 274.966 317.7C274.169 317.773 273.598 317.371 273.245 316.654C273.039 316.236 272.999 315.634 272.294 315.725C271.494 315.827 271.225 316.51 271.684 317.268C272.282 318.257 272.211 318.382 271.027 318.431C270.31 318.461 269.018 319.601 269.011 320.296C269.004 320.973 268.666 321.471 268.352 322.018C267.832 322.923 268.122 323.544 269.067 323.648C269.53 323.7 270.19 323.468 270.254 324.173C270.322 324.927 269.751 325.256 269.065 325.377C268.748 325.447 268.39 325.489 268.17 325.24C267.274 324.228 266.17 323.552 265.039 322.827C264.264 322.33 263.527 321.988 262.684 321.764C262.208 321.637 261.645 321.615 261.633 320.944C261.62 320.255 262.127 320.048 262.69 319.944C263.181 319.854 263.65 319.711 264.065 319.428C264.753 318.957 265.401 318.951 266.057 319.66C266.36 318.48 265.785 317.158 266.815 316.211C266.951 316.086 266.819 315.857 266.621 315.807C266.285 315.722 266.164 315.975 266.022 316.215C265.033 317.896 263.553 319.06 261.933 320.081C261.497 320.355 261.037 320.612 260.561 320.312C260.026 319.974 260.56 319.5 260.507 319.133C260.409 318.463 259.904 317.93 259.368 317.507C259.024 317.235 258.494 317.111 258.566 316.548C258.648 315.915 259.228 315.766 259.706 315.526C260.286 315.235 260.934 315.465 261.495 315.34C261.556 315.182 261.535 315.078 261.44 315.055C260.669 314.867 259.507 315.62 259.24 314.239C259.079 313.398 257.98 313.02 258.252 311.989C258.375 311.524 258.007 311.458 257.604 311.371C256.064 311.04 255.57 310.064 256.208 308.623C257.151 306.492 258.585 304.652 259.8 302.683C260.183 302.064 260.431 301.443 260.531 300.711C260.788 298.825 262.008 297.36 262.935 295.804C265.039 292.27 267.435 288.917 269.557 285.388C269.717 285.141 269.863 284.887 270.073 284.678C271.452 283.027 272.571 281.184 273.746 279.4C275.498 276.74 277.373 274.17 279.157 271.534C281.716 267.755 284.332 264.012 287.032 260.331C287.764 259.333 288.63 258.434 289.165 257.268C288.729 257.136 288.54 257.425 288.306 257.607C285.688 259.399 283.018 261.116 280.397 262.905C274.601 266.859 268.786 270.787 263.129 274.944C258.795 278.129 254.721 281.619 250.953 285.414C248.477 287.907 246.239 290.672 243.893 293.315C243.058 294.257 242.207 295.164 240.991 295.637C240.391 295.87 239.939 296.314 239.58 296.845C239.328 297.218 239.072 297.591 238.699 297.852C236.402 299.461 234.38 301.42 232.069 303.011L232.067 303.012C231.026 303.665 230.367 304.777 229.258 305.347C227.567 305.363 227.359 305.022 228.194 303.568C228.288 303.404 228.44 303.226 228.289 303.098C227.399 302.34 227.762 301.25 227.503 300.328C227.183 299.197 226.671 298.217 225.29 298.128C224.29 298.063 223.855 297.272 223.375 296.58C222.833 295.8 222.272 295.369 221.236 295.766C220.307 296.122 219.431 295.738 218.841 294.973C218.287 294.255 218.8 293.639 219.216 293.034C219.752 292.253 219.529 291.623 218.506 291.397C217.416 291.155 216.336 290.761 215.198 290.809C214.115 290.855 213.452 290.485 213.452 289.303C213.453 289.125 213.532 289.307 213.438 289.174C212.264 287.494 212.597 285.694 212.805 283.825C212.975 282.295 212.114 281.607 210.511 281.501C210.063 281.471 209.604 281.365 209.171 281.518C208.173 281.869 207.358 281.657 206.588 280.919C205.928 280.286 205.159 280.005 204.29 280.66C203.753 281.065 203.185 280.92 202.661 280.558C202.402 280.378 202.161 280.134 201.854 280.077C200.691 279.861 199.952 279.647 200.729 278.112C201.106 277.368 200.439 276.221 200.097 275.303C199.833 274.594 199.865 274.096 200.639 273.79C201.027 273.637 201.382 273.4 201.3 272.901C201.226 272.45 200.879 272.143 200.475 272.112C198.936 271.992 198.275 270.496 196.995 269.96C196.449 269.731 196.504 269.101 196.852 268.676C197.6 267.764 197.899 266.834 197.335 265.702C197.064 265.156 197.413 264.761 197.871 264.48C199.021 263.777 200.163 263.121 200.497 261.613C200.643 260.96 201.356 260.913 201.977 261.065C202.36 261.158 202.677 261.448 203.107 261.503C203.172 260.958 202.972 260.481 202.641 260.26C201.658 259.604 201.593 258.821 202.035 257.838C202.297 257.258 202.086 256.709 201.807 256.167C201.482 255.535 201.524 254.954 202.195 254.535C204.381 253.172 205.966 251.258 207.102 248.986C207.781 247.63 208.755 246.685 210.144 246.105C210.782 245.839 211.511 245.638 210.831 244.593C210.342 243.842 210.926 242.622 211.763 242.589C212.937 242.544 213.659 241.947 214.336 241.068C213.349 241.247 212.954 240.799 213.5 239.947C214.408 238.528 214.715 236.571 216.776 236.114C217.084 236.045 217.322 235.744 217.373 235.428C217.674 233.527 219.354 232.2 219.514 230.242C219.541 229.913 219.738 229.626 220.039 229.503C220.971 229.126 221.003 228.44 220.736 227.629C220.776 226.92 221.356 226.509 221.658 225.945C221.74 225.827 221.835 225.72 221.941 225.623C226.247 221.245 229.915 216.32 233.934 211.697C236.606 208.625 239.126 205.422 241.916 202.432C241.367 202.712 240.82 202.99 240.315 203.346C240.211 203.436 240.097 203.515 239.98 203.587C234.575 207.075 229.088 210.445 224.137 214.586C224.041 214.678 223.938 214.762 223.83 214.838C219.792 217.973 215.727 221.075 212.015 224.605C211.62 224.98 211.176 225.291 210.681 225.506C209.702 225.934 209.011 226.67 208.332 227.464C207.527 228.407 206.759 229.457 205.313 229.479C205.04 229.483 204.731 229.594 204.623 229.842C204.036 231.19 202.618 231.574 201.64 232.462C201.21 232.852 200.693 232.952 200.136 232.917C199.058 232.85 198.327 233.318 197.931 234.319C197.865 234.486 197.789 234.651 197.691 234.801C197.354 235.318 197.067 236.073 196.324 235.873C195.536 235.661 195.78 234.864 195.782 234.258C195.783 234.124 195.874 233.94 195.815 233.864C195.012 232.812 195.776 232.133 196.295 231.299C196.886 230.347 197.764 230.214 198.701 230.068C199.408 229.959 200.08 229.666 200.82 229.717C201.384 229.755 201.93 229.667 202.128 229.026C202.315 228.42 202.464 227.792 201.993 227.232C201.733 226.922 201.41 226.672 201.148 226.361C200.917 226.087 200.718 226.018 200.366 226.289C199.29 227.116 198.567 226.825 198.352 225.448C198.226 224.641 198.005 223.871 197.753 223.104C197.671 222.853 197.559 222.567 197.224 222.592C196.962 222.611 196.92 222.882 196.803 223.067C196.15 224.102 195.818 225.271 195.438 226.411C195.162 227.237 195.482 227.978 196.054 228.639C196.806 229.51 196.732 230.191 195.804 230.87C194.766 231.629 193.536 231.735 192.322 231.584C191.512 231.483 191.5 230.886 191.872 230.267C192.216 229.694 192.852 229.702 193.478 229.498C192.976 229.01 192.405 228.756 191.837 228.524C191.215 228.27 190.588 228.047 190.602 229.158C190.612 229.948 190.067 230.152 189.397 229.983C188.613 229.786 187.879 229.51 187.063 229.983C186.587 230.259 186.262 229.764 185.951 229.444C185.589 229.072 185.431 228.46 184.77 228.44C183.866 228.469 183.116 228.21 182.697 227.333C182.589 227.193 182.504 226.97 182.319 226.976C179.3 227.075 177.884 224.724 176.103 222.93C175.687 222.51 175.521 221.938 175.219 221.373C173.728 222.375 172.718 223.787 171.644 225.12C169.066 228.316 166.437 231.474 164.176 234.914C163.633 235.741 162.731 236.132 161.881 236.641C160.45 237.496 158.709 238.075 157.879 239.743C157.755 239.814 157.625 239.874 157.49 239.921L157.46 239.856C155.738 240.109 155.494 239.926 155.386 238.217C155.322 237.207 154.839 236.245 155.138 235.21C154.646 236.529 154.229 237.85 153.699 239.124C153.389 239.869 152.761 240.338 151.907 240.308C151.252 240.286 150.99 239.831 150.938 239.226C150.964 238.46 150.972 237.683 150.584 236.993C149.773 235.554 150.356 234.209 150.872 232.894C151.047 232.449 151.25 232.314 150.757 231.862C150.01 231.18 150.208 230.21 150.647 229.366C150.978 228.73 151.386 228.133 151.43 227.387C151.478 227.054 151.719 226.759 151.648 226.338C151.04 226.285 150.557 226.655 150.012 226.726C149.202 227.357 148.654 228.236 147.896 228.917C147.018 229.707 146.022 229.843 145.322 228.971C144.644 228.126 143.94 228.159 143.073 228.388C142.34 228.58 141.596 228.73 140.861 228.928C139.986 229.135 139.112 229.285 138.234 228.933C137.687 228.713 137.304 229.039 136.904 229.329C135.923 230.04 134.947 229.971 134.143 229.102C133.465 228.37 132.108 228.107 132.345 226.688C133.308 224.833 134.108 222.901 135.032 221.025C136.234 218.586 137.317 216.088 138.614 213.694C138.764 213.416 138.87 213.121 139.161 212.958C139.979 212.96 140.375 212.585 140.327 211.731C140.305 211.333 140.407 210.93 140.388 210.523C140.415 209.906 140.96 209.605 141.226 209.132C141.906 208.166 142.4 207.078 143.191 206.188C143.404 205.998 143.662 205.902 143.938 205.847C145.164 205.641 144.907 205.059 144.303 204.388C144.252 203.329 144.891 202.569 145.454 201.789C145.895 201.18 146.285 200.54 146.682 199.903C147.845 197.962 149.154 196.113 150.211 194.112C150.238 193.962 150.284 193.818 150.34 193.677C150.856 192.149 152.364 191.296 152.972 189.839C153.549 188.456 154.278 187.212 155.472 186.248C156.118 185.727 156.17 184.794 156.606 184.142C158.767 180.919 160.786 177.59 163.263 174.621C161.849 175.629 160.739 177.079 159.274 178.086C156.189 180.205 154.052 183.326 151.117 185.627C149.174 187.151 147.801 189.302 146.226 191.228C144.274 193.616 142.395 196.116 140.174 198.234C137.558 200.729 135.547 203.67 133.253 206.4C132.672 207.091 131.971 207.654 131.264 208.205C130.104 209.107 129.508 210.379 128.924 211.664C127.614 212.181 127.236 213.74 125.971 214.31C125.171 215.201 124.154 215.916 123.819 217.172C123.59 218.032 122.664 218.222 122.12 218.787C120.941 218.781 119.763 219.158 118.575 218.686C118.109 218.501 117.506 218.545 117.584 219.317C117.68 220.279 117.104 220.347 116.407 220.283C115.855 220.231 115.296 220.148 115.086 220.846C114.85 221.634 115.514 221.833 115.987 222.131C116.493 222.45 117.063 222.577 117.658 222.554C118.537 222.521 119.035 222.869 118.979 223.811C118.819 224.303 118.422 224.581 118.033 224.867C117.599 225.103 117.079 225.213 116.717 225.532C116.202 225.985 115.562 226.415 115.922 227.322C116.244 228.132 115.892 228.879 115.327 229.404C114.627 230.053 114.013 230.663 113.883 231.683C113.823 232.149 113.464 232.574 112.942 232.745C111.944 232.638 111.628 231.604 110.845 231.208C109.723 230.501 108.459 230.405 107.185 230.352C107.098 230.348 107.009 230.382 106.921 230.388C106.228 230.438 105.537 230.401 105.175 229.698C104.745 228.863 105.619 228.689 106.089 228.182C105.067 227.879 104.205 227.694 103.445 228.628C103.144 228.997 102.654 229.196 102.2 229.389C102.075 229.435 101.938 229.499 101.815 229.472C100.686 229.224 99.5701 228.944 98.7883 230.201C98.6676 230.394 98.2969 230.358 98.0277 230.307C97.3156 230.11 97.2137 229.516 97.0041 228.917C96.7802 228.276 96.9658 227.36 96.0111 227.109C95.8934 227.136 95.7766 227.156 95.659 227.18C94.4737 227.606 93.3465 228.162 92.2687 228.797C91.4267 229.294 90.776 229.266 90.1799 228.448C89.6413 227.71 89.3999 227.728 88.5134 228.39C87.6364 229.044 86.6155 229.402 86.0479 230.493C85.85 230.874 85.2126 230.698 84.8366 230.388C84.4184 230.042 84.0204 229.668 84.1177 229.038C84.1635 228.746 84.5001 228.546 84.3831 228.174C83.7512 228.26 83.2465 229.06 82.5347 228.549C81.8843 228.081 82.4953 227.466 82.4013 226.924C82.3983 226.787 82.4139 226.654 82.4451 226.522C82.7951 225.911 82.8075 225.147 83.3134 224.607C83.9086 224.15 83.848 223.41 84.1026 222.805C85.4564 219.591 87.1142 216.526 88.933 213.558C89.3289 212.911 89.6576 212.238 90.0216 211.58C90.5149 210.69 91.1391 210.2 92.2055 210.604C92.496 210.715 92.8106 210.779 93.1276 210.774C93.4895 210.767 93.9089 210.765 94.0539 210.38C94.2261 209.924 93.7597 209.792 93.4919 209.591C91.8577 208.362 91.9973 208.425 92.821 206.47C93.5594 204.716 95.1811 203.557 95.7245 201.699C95.86 201.237 96.3531 200.835 96.9202 200.707C97.3737 200.559 97.9443 201.145 98.3159 200.431C97.9132 200.797 97.4527 200.725 96.9921 200.663C96.5695 200.366 96.5952 200.024 96.8809 199.652C97.577 198.744 97.9937 197.667 98.6538 196.738C99.0789 196.007 99.6238 195.345 99.9024 194.532C100.025 194.204 100.214 193.915 100.429 193.643C100.614 193.449 100.839 193.309 101.066 193.172C101.815 192.444 102.817 193.009 103.638 192.672C103.648 192.567 103.651 192.463 103.631 192.36C103.326 191.817 102.527 191.612 102.58 190.826C102.816 189.88 103.321 189.112 104.091 188.522C104.966 187.852 104.974 186.579 105.895 185.945C106.732 185.559 107.536 186.223 108.493 185.986C108.315 185.409 107.748 184.92 107.926 184.233C108.093 183.59 108.626 183.226 109.001 182.743C109.389 182.244 109.492 181.72 109.256 181.13C109.199 180.858 109.231 180.6 109.368 180.357C109.758 179.965 109.897 179.403 110.284 179.007C110.944 178.217 111.407 177.298 111.965 176.44C112.345 175.855 112.795 175.32 113.156 174.723C114.261 173.612 114.861 172.159 115.754 170.904C116.249 170.236 116.864 169.738 117.702 169.565C117.836 169.548 117.973 169.553 118.107 169.573C119.197 170.204 119.605 169.154 120.301 168.645C119.318 168.568 119.278 167.81 119.143 167.116C119.048 166.216 119.964 165.765 120.092 164.963C120.109 164.755 120.19 164.57 120.307 164.402C120.385 164.291 120.476 164.192 120.576 164.103C121.202 163.322 121.736 162.485 122.11 161.552C122.205 161.365 122.339 161.215 122.526 161.117C123.376 160.926 123.904 161.349 124.222 162.07C124.627 162.992 125.175 163.426 126.205 162.925C126.858 162.607 127.29 162.809 127.117 163.609C126.992 164.181 127.152 164.652 127.397 165.141C127.641 165.63 127.83 166.142 127.355 166.622C127.196 166.751 127.011 166.811 126.808 166.813C126.33 166.942 126.172 165.719 125.539 166.515C124.813 167.327 124.096 167.517 123.39 166.486C123.237 166.263 123.058 166.055 122.744 166.14C122.56 166.191 122.444 166.341 122.449 166.53C122.46 166.897 122.732 167.051 123.029 167.173C123.632 167.419 124.373 167.277 124.866 167.832C125.615 168.657 126.351 169.497 127.2 170.488C127.736 168.723 129.553 167.958 129.895 166.196C130.209 165.606 130.681 165.243 131.363 165.166C131.582 165.141 131.917 165.121 131.983 164.967C132.517 163.743 133.805 164.399 134.624 163.885C134.993 163.653 135.266 163.998 135.497 164.295C136.043 165.001 136.603 165.627 137.509 165.981C138.494 166.366 138.375 167.92 137.336 168.421C136.848 168.656 136.55 168.818 136.848 169.376C136.911 169.481 136.971 169.587 137.038 169.689C137.841 170.506 138.662 170.258 139.459 169.71C139.938 169.38 140.371 168.976 140.941 168.8C141.523 168.621 142.032 168.763 142.326 169.313C142.642 169.903 142.376 170.365 141.85 170.668C140.643 171.36 139.408 172.018 138.054 172.366C136.992 172.638 136.276 173.178 136.064 174.286C135.925 175.013 135.527 175.49 134.788 175.684C134.437 175.775 134.044 175.934 134.206 176.413C134.434 177.087 134.961 177.522 135.57 177.837C135.965 178.041 136.132 177.726 136.26 177.421C136.568 176.686 137.152 176.499 137.792 176.849C138.688 177.339 139.039 176.806 139.062 176.137C139.131 174.114 140.572 173.659 142.112 173.444C143.051 173.313 143.311 172.603 143.797 172.058C144.76 171.243 144.225 170.191 144.235 169.228C144.138 168.611 143.678 168.662 143.214 168.616C141.658 168.462 141.027 167.432 141.76 166.12C142.193 165.347 142.285 164.858 141.538 164.181C140.784 163.499 140.648 161.293 141.092 160.515C141.773 159.322 142.83 159.065 144.092 159.298C144.306 159.337 144.533 159.393 144.732 159.168C144.638 158.657 143.724 158.114 144.081 157.86C145.317 156.982 145.188 155.364 146.118 154.457C146.815 153.778 146.869 153.347 146.319 152.682C145.709 152.165 144.97 151.802 144.604 151.009C144.277 150.297 143.612 150.526 143.056 150.64C142.254 150.805 142.773 151.314 142.838 151.69C142.886 151.963 142.953 152.267 142.754 152.464C141.674 153.533 142.086 154.561 142.809 155.592C143.023 156.23 143.247 156.875 143.152 157.558C143.07 158.142 142.719 158.56 142.134 158.671C141.583 158.775 141.262 158.329 141.151 157.925C140.851 156.832 140.032 156.318 139.18 155.701C137.831 154.724 137.159 153.229 136.719 151.648C136.646 151.386 136.642 151.09 136.762 150.855C137.321 149.756 137.789 148.697 136.938 147.486C136.709 147.16 137.025 146.708 137.464 146.547C137.899 146.389 138.261 146.535 138.527 146.897C138.877 147.372 138.969 147.973 139.338 148.559C139.633 147.818 140.027 147.55 140.543 148.325C140.618 148.437 140.691 148.554 140.792 148.642C141.127 148.934 141.524 148.907 141.727 148.573C141.995 148.131 141.444 148.157 141.253 147.964C140.093 146.793 138.786 145.753 137.828 144.4C137.082 143.346 137.268 142.294 138.07 141.327C138.448 140.168 139.213 139.587 140.469 139.636C141.379 139.671 141.756 139.288 141.198 138.415C140.642 137.546 140.843 136.853 141.546 136.149C142.199 135.494 142.509 134.518 143.434 134.104C143.765 133.957 144.116 133.884 144.475 133.861C146.429 133.742 147.281 135.001 146.475 136.793C146.177 137.454 145.433 138.063 145.958 138.876C146.696 140.016 147.436 141.173 148.568 141.987C148.874 142.005 149.161 141.94 149.426 141.783C150.093 141.224 150.414 140.555 150.254 139.654C150.097 138.767 150.516 138.182 151.376 137.932C152.023 137.745 152.661 137.524 153.315 137.369C154.576 137.07 155.568 137.606 155.883 138.859C156.081 139.648 156.499 139.876 157.22 139.84C157.759 139.814 158.342 139.778 158.823 139.972C160.138 140.506 160.769 139.434 161.606 138.881C161.998 138.623 161.683 138.231 161.545 137.915C161.18 137.082 161.349 136.365 162.168 135.985C162.961 135.618 163.719 135.852 164.09 136.681C164.507 137.616 165.147 137.772 166.055 137.554C167.03 137.319 167.901 137.357 167.917 138.716C167.919 138.958 167.997 139.185 168.309 139.094C168.572 139.017 168.797 138.857 168.853 138.561C168.88 138.419 168.775 138.31 168.684 138.21C168.304 137.792 167.928 137.304 168.406 136.805C168.815 136.377 169.321 136.751 169.855 137.027C169.351 136.299 168.88 135.988 168.228 136.653C168.132 136.751 167.95 136.826 167.857 136.77C166.62 136.032 165.076 136.236 163.875 135.536C163.227 135.157 162.707 135.095 162.01 135.147C160.052 135.297 158.357 136.348 156.451 136.647C155.964 136.723 155.489 136.874 154.988 136.844C153.565 136.76 153.108 136.225 153.259 134.688C152.42 134.732 151.567 134.755 150.873 134.175C150.358 133.748 149.919 133.579 149.221 134.013C148.288 134.593 147.005 134.057 146.637 133.107C146.485 132.717 146.376 132.096 146.75 132.018C147.82 131.795 147.862 130.912 148.305 130.214C148.756 129.506 149.471 128.897 150.469 128.769C151.534 128.632 152.449 127.96 153.52 127.776C154.015 127.69 154.049 127.213 154.171 126.844C154.438 126.031 154.742 125.238 155.293 124.57C155.893 123.842 156.621 123.674 157.429 124.209C158.157 124.689 158.398 125.756 157.879 126.462C157.355 127.177 156.7 127.768 157.935 128.459C158.358 128.695 158.19 129.18 157.828 129.477C157.497 129.75 157.069 129.715 156.676 129.785C156.555 129.821 156.431 129.849 156.306 129.873C155.431 130.149 154.479 130.579 154.09 131.299C153.533 132.327 155.286 132.365 155.244 133.3C155.685 133.282 155.794 132.972 155.847 132.755C156.13 131.614 156.715 130.826 157.963 130.652C158.212 130.617 158.451 130.421 158.529 130.129C158.862 128.876 159.624 128.884 160.586 129.419C160.919 129.604 161.3 129.601 161.637 129.463C162.691 129.028 163.787 128.859 164.919 128.801C165.581 128.768 165.985 128.357 166.067 127.684C166.148 127.014 166.568 126.338 165.695 125.773C164.488 124.991 163.38 124.026 161.8 124.747C160.869 125.066 159.935 125.371 158.932 125.343C158.109 124.607 158.061 124.046 158.797 123.411C159.135 123.121 159.531 122.908 159.948 122.738C161.326 122.178 161.325 122.177 161.243 120.711C161.263 120.532 161.01 120.778 161.18 120.721C161.23 120.705 161.23 120.746 161.227 120.846C161.202 121.6 160.862 122.168 160.118 122.32C159.386 122.469 159.08 121.926 158.95 121.313C158.789 120.55 158.24 120.647 157.697 120.685C155.648 120.835 155.556 120.725 156.108 118.796C156.381 118.093 157.068 117.695 157.398 117.035C157.91 116.231 158.68 115.674 159.364 115.042C160.019 114.436 160.642 113.836 160.996 112.992C161.15 112.623 161.4 112.213 161.828 112.182C162.418 112.14 162.442 111.883 162.622 111.364C162.858 110.684 163.834 110.583 164.505 110.272C165.07 110.011 165.711 109.936 166.326 109.812C167.91 109.493 169.481 109.15 170.875 107.943C169.382 107.81 169.536 105.967 168.158 105.564C167.618 105.406 168.072 104.709 168.271 104.275C168.346 104.112 168.321 104.328 168.326 104.157C168.336 103.869 168.162 104.138 168.076 104.109C166.726 104.389 165.8 105.459 164.57 105.949C164.204 105.991 163.894 106.177 163.564 106.318C163.011 106.554 162.413 106.757 161.989 106.132C161.611 105.576 161.504 104.891 161.955 104.364C163.244 102.861 164.625 101.438 166.534 100.708C167.382 100.384 168.293 101.124 169.139 100.624C167.765 99.4194 166.235 99.8706 164.717 100.261C164.068 100.429 163.866 100.997 163.623 101.535C163.306 102.238 162.787 102.671 162.026 102.214C161.252 101.749 161.713 101.152 161.972 100.576C162.238 99.9854 163.279 99.6114 162.874 98.94C162.419 98.1831 161.563 98.8685 160.884 98.9204C160.241 98.9701 159.657 98.8951 159.071 98.5702C157.355 97.6168 156.34 97.7313 154.86 99.0005C154.059 99.6879 153.345 99.9091 152.605 98.8824C152.156 98.2585 151.468 98.1915 150.78 98.4858C149.828 98.8912 148.861 99.2424 147.861 99.5122C147.111 99.7138 146.852 100.132 147.222 100.917C147.583 101.686 147.687 102.48 146.847 103.083C146.623 103.245 146.502 103.51 146.474 103.78C146.43 104.21 146.051 104.673 146.393 105.062C146.748 105.467 147.245 105.181 147.657 105.072C148.651 104.808 149.621 104.332 150.783 105.043C150.236 104.068 149.698 103.196 151.182 102.83C151.37 102.784 151.472 102.621 151.492 102.431C151.548 101.922 151.264 101.252 151.921 101.001C152.623 100.735 153.374 100.412 154.14 100.595C154.808 100.756 155.252 100.828 155.346 99.9426C155.395 99.4807 155.846 99.4993 156.215 99.581C157.184 99.7955 158.014 100.167 158.215 101.296C158.372 102.181 158.836 102.772 159.811 102.836C160.489 102.881 160.858 103.272 160.985 103.931C161.107 104.563 160.842 104.97 160.286 105.224C159.702 105.491 159.452 105.999 159.262 106.57C159.002 107.352 158.751 108.253 157.618 107.765C156.598 107.327 156.732 106.568 157.413 105.693C156.377 105.638 155.512 105.439 154.645 105.823C155.419 107.257 155.404 107.363 154.023 108.039C153.446 108.321 153.143 108.696 153.394 109.309C153.693 110.038 154.265 109.86 154.731 109.536C155.542 108.971 156.339 108.809 157.244 109.305C158.114 109.782 158.171 110.119 157.403 110.753C156.298 111.667 155.047 112.375 153.894 113.222C153.749 113.328 153.661 113.492 153.555 113.638C152.354 114.474 151.189 115.355 150.018 116.229C148.309 117.031 146.645 116.279 145.938 114.387C145.585 113.441 145.932 113.023 146.976 113.221C147.889 113.394 148.783 113.589 149.645 113.185C149.656 112.927 149.555 112.781 149.435 112.805C147.844 113.122 146.725 112.561 146.069 111.065C145.951 110.799 145.712 110.646 145.407 110.782C145.087 110.923 145.11 111.202 145.199 111.471C145.529 112.464 145.666 113.492 145.64 114.525C145.61 115.736 145.04 116.03 144.003 115.411C143.434 115.07 142.759 114.863 142.4 114.221C142.27 113.988 142.085 113.761 141.751 113.893C141.576 113.961 141.423 114.075 141.397 114.265C141.348 114.613 141.649 114.687 141.873 114.823C143.102 115.57 144.289 116.379 145.406 117.284C145.942 117.719 146.443 118.204 146.021 118.999C145.942 119.105 145.847 119.194 145.737 119.267C144.054 120.181 142.498 121.265 141.163 122.646C139.453 123.434 138.23 124.912 136.619 125.84C135.795 126.204 134.968 126.531 134.16 125.802C133.584 127.061 133.166 128.323 132.075 129.167C131.972 129.247 131.862 129.312 131.744 129.366C130.19 130.389 128.402 131.108 127.313 132.741C127.083 133.079 126.716 133.25 126.406 133.49C125.709 133.796 125.068 134.165 124.518 134.72C123.445 135.804 122.228 135.864 121.281 134.695C120.537 133.778 119.801 133.066 118.594 132.919C118.182 132.869 117.966 132.438 117.433 132.078C117.73 133.28 117.532 134.118 116.329 134.48C115.778 134.646 116.117 135.158 116.239 135.515C116.53 136.366 116.188 136.696 115.347 136.644C114.74 136.498 114.152 136.25 113.507 136.318C112.888 136.383 112.363 136.174 111.904 135.768C111.495 135.407 111.066 135.091 110.471 135.103C110.126 135.29 110.383 135.578 110.367 135.817C110.294 136.94 109.758 137.301 108.68 136.903C108.301 136.763 107.914 136.457 107.66 137.001C107.455 137.438 107.725 137.81 108.073 138.033C109.072 138.67 109.877 139.684 111.233 139.648C111.591 139.638 111.917 139.86 112.189 140.102C112.901 140.735 112.778 141.456 111.861 141.663C111.027 141.85 110.245 142.189 109.413 142.371C107.775 143.047 107.521 143.09 105.348 142.519C104.373 142.262 103.362 142.788 102.199 142.158C102.766 142.894 103.252 143.239 103.986 143.218C104.472 143.205 105.211 142.767 105.347 143.559C105.483 144.352 105.625 145.294 104.712 145.852C104.487 145.99 104.192 146.028 104.051 146.284C103.914 146.53 103.864 146.81 104.042 147.048C104.206 147.267 104.462 147.2 104.65 147.083C105.407 146.614 106.68 146.715 106.546 145.252C106.505 144.8 106.959 144.431 107.465 144.432C108.609 144.434 109.033 145.373 109.519 146.161C109.946 146.854 109.659 147.498 109.085 147.948C108.238 148.613 107.427 149.324 106.551 149.952C106.141 150.159 105.706 150.206 105.273 150.061C104.244 149.718 103.768 150.108 103.739 151.156C103.728 151.523 103.592 151.84 103.249 152.032C102.209 151.962 100.884 150.737 100.804 149.78C100.779 149.493 100.835 149.239 101.07 149.06C102.153 148.233 101.901 147.036 101.965 145.907C101.741 146.996 100.728 147.536 100.268 148.45C99.9933 148.996 99.4262 149.016 98.8631 149.051C97.3064 149.144 97.0562 149.664 97.9178 150.906C98.4221 151.632 98.1882 152.762 97.3361 152.854C95.8832 153.012 96.2473 154.041 96.1034 154.855C96.0736 155.022 96.1644 155.206 96.202 155.383C96.3018 156.044 96.5881 156.743 95.8469 157.239C95.1834 157.272 94.5339 157.045 93.8506 157.184C93.3076 157.295 92.7502 156.997 92.7717 156.443C92.8173 155.286 92.5495 153.977 93.682 153.131C94.2909 152.676 94.3095 152.324 93.6944 151.904C93.4303 151.724 93.1844 151.503 93.0826 151.203C92.6741 149.996 91.9767 149.393 90.6413 149.884C90.283 150.016 89.9084 149.909 89.7815 149.47C89.6325 148.953 89.7471 148.523 90.1856 148.155C90.5156 147.879 91.4064 147.944 91.088 147.288C90.8008 146.696 90.1263 147.219 89.6185 147.25C88.8563 147.297 88.462 147.593 88.5928 148.429C88.6545 148.826 88.5233 149.233 88.3694 149.607C88.0648 150.344 87.7384 151.047 89.1002 150.704C89.4194 150.623 89.6692 150.913 89.8213 151.212C89.9455 151.455 90.021 151.719 90.0207 151.986C90.0212 152.719 90.5502 153.582 89.842 154.15C89.1397 154.713 88.5353 153.862 87.8672 153.721C87.296 153.601 86.8532 153.161 86.1564 153.014C86.2972 153.536 86.7937 153.693 86.9719 154.068C87.2126 154.714 87.5785 155.296 88.2004 155.598C89.1339 156.053 89.853 156.728 90.2005 157.667C90.7106 159.044 92.0755 159.371 93.0338 160.194C93.7532 160.995 93.5135 161.775 92.987 162.548C92.6536 162.829 92.1676 163.006 91.8857 162.725C90.9351 161.775 89.5326 161.941 88.4462 161.145C87.9447 161.98 88.5626 163.081 87.6756 163.762C86.9134 164.347 86.8996 165.45 86.2365 166.148C86.657 165.942 86.9879 165.641 87.2723 165.284C87.5451 164.942 87.856 164.687 88.2866 165.014C88.7077 165.333 88.7219 165.765 88.5131 166.214C88.3442 166.579 88.0201 166.847 87.8698 167.226C86.9206 167.851 86.5731 169.07 85.527 169.603C84.9319 169.533 84.7972 169.024 84.5853 168.6C84.2164 167.863 84.0091 167.044 83.0459 166.745C82.5614 166.595 82.632 166.028 82.6761 165.582C82.8642 164.89 83.1408 164.206 82.8929 163.468C81.9207 162.737 80.9211 162.029 81.3984 160.552C81.4926 160.259 81.2808 160.087 81.005 159.949C79.3773 159.13 78.7289 157.674 79.1322 155.788C79.2927 155.037 79.8375 154.266 78.9813 153.569C78.6171 154.633 78.1573 155.659 78.3617 156.862C78.4801 157.557 78.0828 158.156 77.5409 158.613C77.1589 158.935 76.8849 159.345 76.6023 159.746C76.3992 160.035 76.2929 160.417 76.7713 160.443C77.9934 160.511 78.0479 161.33 78.0653 162.23C78.0722 162.584 78.2658 162.922 78.1828 163.289C77.424 164.567 75.1288 165.339 73.8094 164.723C73.3823 164.524 72.9752 164.45 72.514 164.493C71.8344 164.558 71.5065 164.838 71.7795 165.545C71.9975 166.11 71.9311 166.673 71.8773 167.261C71.7248 168.921 71.6306 170.541 73.2235 171.759C73.9271 172.297 73.9533 173.198 73.2293 173.881C72.7214 174.36 72.4439 174.849 72.7702 175.534C73.2279 176.56 73.4942 177.589 73.1546 178.73C73.0065 179.228 73.0623 179.812 73.5676 180.171C74.1964 180.618 74.1788 181.184 73.9509 181.815C71.3855 184.774 68.9197 187.818 66.3356 190.764C64.8606 192.445 63.2485 193.994 61.7524 195.653C60.8295 196.676 60.4967 198.148 59.2638 198.943C59.0779 199.063 58.9217 199.233 58.7595 199.386C58.0077 200.1 56.8798 200.082 56.1239 200.622C55.368 201.163 55.7229 202.475 54.9827 203.22C54.6251 203.58 54.2842 203.937 53.7721 204.005C53.2169 204.078 52.7624 204.274 52.3665 204.686C52.0458 205.019 51.5771 205.215 51.131 205.048C49.0806 204.278 47.2168 205.263 45.3386 205.712C43.5953 206.128 42.8072 205.787 42.7287 203.981C42.6922 203.148 42.2841 202.87 41.524 202.934C39.7972 202.817 39.7387 202.705 40.6541 201.281C40.7501 201.132 40.774 200.958 40.8229 200.793C40.8894 200.487 40.9518 200.179 41.0027 199.869C41.3149 197.964 41.3163 197.959 43.1322 198.446C43.501 198.545 43.8427 198.473 44.1908 198.376C44.4506 198.302 44.7817 198.155 44.9776 198.29C46.4749 199.325 46.8528 197.893 47.4745 197.144C47.8671 196.67 48.1547 196.097 48.5147 195.582C48.8802 195.06 49.3259 194.694 49.9751 194.871C50.652 195.055 50.5929 195.663 50.5929 196.205C50.0741 197.418 50.8697 198.805 49.9355 200.108C50.685 200.101 51.1258 199.792 51.3774 199.366C51.9188 198.447 52.3898 197.488 52.5279 196.396C52.6077 195.766 52.3531 195.47 51.7635 195.386C51.2969 195.234 50.9453 194.963 50.8091 194.47C50.9094 193.429 50.3285 193.647 49.7358 193.894C48.978 194.591 48.5993 195.566 47.9187 196.33C47.2666 197.062 46.6119 197.394 45.72 196.837C44.8026 196.264 43.9267 196.446 43.0785 196.951C42.3439 197.388 41.5685 197.702 40.7342 197.875C40.2147 197.976 39.7437 198.232 39.2333 198.359C38.4137 198.564 37.5858 198.75 36.8679 198.085C36.5312 197.773 36.2201 197.953 35.8994 198.097C33.901 198.287 33.7122 198.15 33.3498 196.201C33.1265 195 32.211 194.264 31.3984 193.537C30.7303 192.938 30.5389 192.373 30.6696 191.545C30.8529 190.39 30.7218 189.218 30.723 188.053C30.7242 187.438 30.6644 186.924 29.72 187.136C28.8322 187.336 28.4338 186.807 28.7416 185.974C29.0547 185.127 29.5507 184.367 30.3 183.827C31.1848 183.188 31.7894 183.455 32.017 184.552C32.0809 184.86 32.0251 185.182 32.1008 185.488C32.218 185.962 32.5859 186.273 32.9813 185.988C33.6524 185.505 34.366 185.012 34.4683 184.033C34.5577 183.182 34.1605 182.823 33.4143 182.598C32.9219 182.45 32.8283 181.978 32.8037 181.501C32.7529 180.546 32.8827 179.626 33.2658 178.746C33.6569 177.985 33.0366 177.747 32.5936 177.376C32.1458 177.003 31.7051 177.08 31.3876 177.418C30.611 178.245 29.7797 177.542 28.9856 177.554C28.5982 177.561 28.4679 177.158 28.4928 176.738C28.5983 174.932 28.5889 174.938 26.7042 174.971C25.9799 174.984 25.4174 174.652 24.9779 174.081C23.9739 172.778 22.3183 172.377 21.1285 171.325C21.0125 171.222 20.7795 171.276 20.6016 171.248C19.6979 171.198 18.8822 170.791 18.0111 170.614C16.8773 170.381 16.8596 169.233 16.274 168.554C16.0468 167.947 15.4712 167.608 15.131 167.081C14.7389 166.473 14.1795 166.754 13.6804 166.919C13.0302 167.134 12.6056 167.145 12.4564 166.271C12.3099 165.414 11.726 164.997 10.8058 165.333C9.64137 165.731 9.15679 165.024 8.80104 164.105C8.59513 163.373 8.49861 162.631 8.48879 161.866C8.47338 160.629 7.75455 160.129 6.57115 160.411C4.60095 160.878 2.9965 159.88 1.66057 158.734C1.04854 158.21 -0.223374 157.81 0.0339079 156.515C0.708463 155.69 1.32103 154.858 1.70943 153.825C2.26427 152.352 3.55721 151.333 4.37148 150.005C5.78857 147.693 7.4503 145.547 8.90953 143.268C10.0863 142.079 10.6879 140.477 11.7817 139.224C12.0435 138.924 12.0792 138.59 11.8493 138.235C11.753 138.087 11.8195 138.297 11.7734 138.126C11.4461 136.909 11.4401 135.523 9.50513 135.596C8.92927 135.618 8.78619 134.657 8.96663 133.997C9.16773 133.26 9.43188 132.549 10.0983 132.07C9.88116 132.214 9.72032 132.411 9.48614 132.497C8.79535 132.754 7.91406 133.022 7.58062 132.231C7.23809 131.418 7.99075 130.975 8.74658 130.765C8.87652 130.729 9.00762 130.695 9.1218 130.47C8.66796 129.86 7.99226 129.967 7.35076 129.999C4.99093 130.113 2.55155 127.939 2.46725 125.637C2.4277 124.568 3.9064 122.943 5.03193 122.87C5.60328 122.833 5.99616 122.631 5.64252 122.067C5.08228 121.174 5.5227 120.545 6.01775 119.88C7.08782 118.803 7.95775 117.561 8.9246 116.401C12.4091 112.223 16.0641 108.197 19.7001 104.156C20.1501 103.818 20.6402 104.123 21.2216 104.113C20.7426 102.976 21.4731 102.239 21.9873 101.43C22.3863 101.064 22.6037 100.511 23.1571 100.307C23.4352 100.165 23.7326 100.051 23.932 99.7912C25.9652 97.1428 28.3791 94.8303 30.6023 92.3525C31.5165 91.3343 32.407 90.2772 33.3651 89.2896C34.302 88.3238 35.8441 88.5569 36.4751 89.7667C36.8471 90.4807 36.4256 91.1617 35.5336 90.9983C34.0707 90.7297 33.8828 91.782 33.2434 92.8552C35.4235 92.0615 36.8925 90.6615 38.552 89.5742C38.7706 89.5222 38.9923 89.5435 39.2159 89.5448C39.5472 89.5466 40.0194 89.8145 40.1588 89.3622C40.2977 88.9106 39.9964 88.5589 39.584 88.2745C38.2498 87.3578 38.3195 86.9862 39.62 86.136C40.8502 85.332 42.0501 85.4976 43.5137 86.0781C42.9419 85.1537 42.5867 84.403 42.3422 83.6062C42.1676 83.0373 41.8759 82.7453 41.2669 83.0863C41.1336 83.1317 40.9983 83.1489 40.8578 83.1445C39.6452 82.8935 39.9769 82.2626 40.4708 81.5916C41.5201 80.9642 41.8524 79.6535 42.9113 79.0357C44.2909 79.1994 44.0196 77.9013 44.4877 77.2555C45.3486 76.0425 46.5529 75.1403 47.4458 73.9584C47.5271 73.8532 47.624 73.7643 47.7346 73.6916C48.5101 73.3917 48.79 72.6168 49.2966 72.0579C49.3893 71.9669 49.4931 71.8903 49.6062 71.8256C50.5569 71.6821 51.1085 71.349 51.5097 70.2549C51.9978 68.9217 53.448 68.1062 54.3532 66.9491C55.6314 65.534 57.1367 64.3599 58.4817 63.0188C59.9398 62.4618 60.674 61.1118 61.7033 60.0861C62.0828 59.7079 62.4731 59.3425 62.8567 58.9684C62.9528 58.8629 63.0626 58.776 63.1834 58.7021C64.1138 58.4377 64.8672 57.9399 65.3662 57.088C66.3686 55.3758 68.0544 54.3739 69.4977 53.1158C71.5169 51.3552 73.391 49.4618 75.7135 48.0205C76.892 47.2888 77.729 45.9089 78.823 44.9121C79.7186 44.0956 80.9487 43.7131 81.6481 42.6649C82.7701 41.5748 84.1351 40.773 85.2251 39.6357C85.9911 38.836 86.8998 38.6491 87.9229 39.389C87.0356 38.9015 87.1156 38.3658 87.6417 37.7467C88.1674 37.1283 88.8894 36.7291 89.425 36.1214C91.0199 34.4771 92.8356 33.1131 94.7202 31.8189C96.1214 30.8559 97.3655 29.6777 98.7268 28.6527C99.4801 28.0849 100.28 27.5876 101.033 27.0203C101.438 26.7137 101.901 26.5956 102.422 26.6111C104.096 26.6596 105.223 25.7747 105.952 24.373C107.079 22.2047 107.856 21.7187 110.307 21.8876C110.725 21.9161 110.69 21.5899 110.8 21.393C111.239 20.6094 111.69 19.8355 112.241 19.1253C112.326 19.0259 112.421 18.937 112.52 18.8527C113.472 17.8135 114.905 18.0114 116.06 17.4894C116.006 15.836 117.506 15.6298 118.463 14.9217C118.68 14.761 118.884 14.5841 119.108 14.4326C120.383 13.8124 121.404 12.7959 122.662 12.1479C122.998 11.9371 123.358 11.7856 123.748 11.706C124.878 10.6379 126.182 9.83077 127.559 9.1216C129.045 8.35747 130.588 7.73021 132.134 7.10639C132.835 7.4409 133.236 7.37895 133.694 6.56729C134.578 5.00225 136.211 4.17825 137.763 3.45111C139.97 2.4163 142.044 1.12305 144.3 0.191832C145.207 -0.115048 145.954 -0.203036 146.138 1.09357C146.225 1.70223 146.994 1.83585 147.372 2.2724C147.458 2.37102 147.527 2.48198 147.58 2.60215C147.776 4.04274 146.467 4.99344 146.428 6.46923C146.811 6.66999 147.482 6.35476 147.875 6.90616C148.099 7.2204 148.355 7.04193 148.467 6.74709C148.737 6.03045 149.307 5.87815 149.978 5.92133C151.2 5.99912 151.703 5.25005 151.751 4.21356C151.812 2.87326 152.509 2.29663 153.749 2.18114C154.237 2.20024 154.692 2.29978 155.014 2.71206C155.275 2.98774 155.369 3.41287 155.905 3.40989C157.006 3.40391 157.745 4.14643 158.433 4.86066C159.262 5.72112 161.498 6.3757 162.572 5.98458C163.096 5.79462 163.715 5.35764 164.137 6.02492C164.595 6.75028 165.201 7.52584 164.769 8.47123C164.529 8.99532 164.207 9.48393 164.013 10.0328C163.437 10.9921 163.509 12.3493 162.213 12.9129C162.995 12.9361 163.745 12.7543 164.475 13.032C164.989 13.2287 165.556 13.4447 165.589 14.0494C165.637 14.8785 166.101 15.2614 166.799 15.4137C167.715 15.6145 167.887 16.4932 168.418 17.0388C168.538 17.0437 168.656 17.0495 168.776 17.0474C170.105 17.2695 171.399 17.5407 172.07 18.9259C172.363 19.53 172.922 19.6599 173.536 19.6428C173.795 19.6447 174.051 19.668 174.3 19.7444C174.947 19.9191 175.426 20.5754 176.194 20.4106C176.648 20.3445 177.001 19.9993 177.465 19.9634C178.933 19.9687 179.822 21.4693 179.104 22.7703C178.804 23.3163 178.423 23.8194 178.483 24.4904C178.473 24.6292 178.443 24.764 178.394 24.8949C177.607 25.6702 177.962 26.909 177.255 27.7189C177.11 27.8567 176.941 27.9606 176.766 28.0547C176.039 28.419 175.547 29.0606 174.981 29.6317C175.538 29.3251 176.156 29.1357 176.631 28.6802C177.497 27.9069 178.622 27.6055 179.607 27.049C180.352 26.9942 180.982 26.6839 181.531 26.1876C181.637 26.1208 181.749 26.0696 181.867 26.0304C182.641 25.8197 183.097 26.1781 183.254 26.8954C183.54 28.2003 184.729 28.5213 185.662 29.0259C186.507 29.4825 187.192 28.8392 186.931 27.9142C186.627 26.8369 186.852 25.5482 185.701 24.7762C185.477 24.626 185.578 24.2795 185.718 24.0301C185.789 23.9272 185.874 23.8349 185.971 23.7548C186.758 23.1587 187.811 23.0692 188.563 22.4029C189.14 21.9648 189.788 21.7484 190.517 21.7803C191.428 22.9137 190.259 23.6556 189.984 24.5622C189.922 24.766 189.696 24.9009 189.534 25.0554C189.196 25.3756 188.899 25.7245 189.093 26.2298C189.307 26.7846 189.802 26.7022 190.244 26.6645C191.012 26.5987 191.77 26.5755 192.501 26.8775C193.07 27.0588 193.637 26.9547 194.209 26.9003C194.715 26.8514 195.279 26.9009 195.322 27.5337C195.363 28.1441 194.842 28.3098 194.32 28.3402C194.011 28.3585 193.696 28.3262 193.45 28.5656C193.065 28.9009 192.621 29.1562 192.225 29.4745C191.202 30.5114 189.732 30.1621 188.536 30.6595C187.725 31.0012 187.837 31.8173 187.613 32.4595C187.552 32.563 187.476 32.6537 187.388 32.735C186.836 33.0316 186.622 33.5674 186.421 34.1121C186.127 34.6943 186.023 35.2223 186.784 35.5421C187.22 35.725 187.493 36.0736 187.695 36.4857C188.045 37.1982 188.448 37.8132 189.4 37.7121C189.679 37.6822 189.976 37.8533 189.97 38.1602C189.957 38.8833 190.402 38.9044 190.937 38.9211C191.38 38.934 191.691 39.1943 191.772 39.6514C191.834 40.0024 191.679 40.3001 191.364 40.4175C189.905 40.9582 190.158 41.9656 190.629 43.0338C190.733 43.2717 190.683 43.5636 190.882 43.7536C192.616 42.5724 194.572 41.8038 196.335 40.6943C196.816 40.2662 197.14 39.7588 197.21 39.1014C197.299 38.2735 197.822 37.8132 198.598 37.7137C199.268 37.6272 199.758 37.4219 200.061 36.7656C200.363 36.1126 201.053 35.915 201.662 35.6459C202.445 35.0538 203.362 35.1483 204.244 35.217C205.142 35.2865 205.451 35.8916 204.875 36.5537C204.403 37.0971 204.7 37.3084 204.953 37.766C205.459 38.6795 205.948 39.4899 206.97 39.9747C207.741 40.3398 207.691 41.1935 206.897 42.0034C206.178 42.7371 205.397 43.4062 204.914 44.3371C204.236 45.1525 203.25 45.671 202.718 46.6266C200.618 48.0582 198.698 49.7266 196.629 51.21C194.193 52.9576 191.893 54.9277 189.534 56.8017C186.967 58.7463 184.362 60.6407 181.791 62.5799C180.065 63.6114 178.639 65.0231 177.066 66.2515C175.067 67.8149 173.377 69.7505 171.207 71.1059C170.112 71.801 169.226 72.7288 168.341 73.6702C172.385 71.3691 176.398 69.0327 180.328 66.5515C183.578 64.5007 186.941 62.6294 190.186 60.5675C193.275 59.0469 196.301 57.412 199.294 55.7111C200.484 55.0346 201.788 54.4876 203.11 54.117C204.688 53.6745 205.087 53.987 205.587 55.67C205.618 54.6298 205.997 54.1136 206.943 54.0435C207.65 53.9904 208.086 53.3704 208.584 52.9486C209.305 52.3365 209.914 52.378 210.361 53.1589C210.817 53.9589 211.323 54.1168 212.094 53.6376C212.438 53.4238 212.844 53.3223 213.258 53.4181C213.621 53.5021 214.12 53.7588 213.956 54.078C213.232 55.4857 214.599 56.9928 213.689 58.3601C213.582 58.5204 213.634 58.7347 213.846 58.7905C214.273 58.9035 214.614 58.691 214.976 58.4844C214.017 57.5234 214.074 57.0831 215.194 56.4848C215.51 56.3155 215.838 56.1689 216.199 56.115C216.475 56.0797 216.821 56.0561 216.98 56.2384C218.04 57.4546 219.552 57.8104 220.947 58.3832C222.494 59.0191 222.217 60.6179 222.771 61.7726C222.938 62.1199 222.564 62.4238 222.314 62.6828C222.018 62.9889 221.85 63.3475 221.903 63.7786C221.953 64.19 222.054 64.6013 222.514 64.7363C222.922 64.8559 223.199 64.5915 223.426 64.3029C223.844 63.7696 224.161 63.1767 224.413 62.5481C224.681 61.8788 225.087 61.3795 225.889 61.3842C226.719 61.606 226.651 62.2537 226.587 62.8846C226.528 63.4625 226.271 63.9937 226.154 64.5575C226.069 64.9666 226.107 65.3905 226.482 65.6393C226.951 65.9496 227.049 65.4193 227.297 65.2195C227.964 64.6833 228.681 64.8893 228.953 65.7173C229.18 66.4071 229.098 67.1237 229.032 67.8332C228.889 68.7333 228.609 69.5722 227.937 70.23C227.483 70.6745 226.972 70.854 226.609 70.2004C226.148 69.372 225.335 69.2691 224.576 69.0402C223.394 68.6832 222.874 69.1184 222.998 70.3444C223.038 70.747 223.07 71.205 223.343 71.4915C225.021 73.2457 224.375 75.1221 223.775 77.0548C223.343 78.4451 222.173 78.6037 221.073 78.9473C220.728 79.0414 220.397 79.1872 220.05 79.2721C219.272 79.4624 218.585 79.3269 218.248 78.526C217.898 77.6959 217.988 76.9417 218.869 76.4508C219.136 76.3026 219.456 76.2135 219.585 75.8653C219.347 75.6224 219.184 75.8561 219.066 75.9865C218.404 76.7173 217.793 76.9783 217.185 75.9151C216.995 75.5839 216.564 75.5849 216.245 75.4304C215.65 75.1432 215.317 74.6614 215.496 74.0182C215.693 73.3059 216.276 73.4043 216.82 73.5795C217.167 73.6917 217.533 73.8708 217.756 73.4297C217.997 72.9501 217.628 72.6845 217.307 72.4413C216.913 72.1422 216.496 71.8673 216.022 71.7167C215.386 71.5142 214.901 71.1666 214.66 70.523C214.528 70.1685 214.338 69.8509 213.887 69.9318C213.325 70.0321 213.396 70.4986 213.405 70.8902C213.421 71.6175 213.604 72.2532 214.112 72.8544C215.005 73.9112 215.743 75.0493 214.516 76.4094C214.229 76.7275 214.241 77.2534 214.175 77.6951C213.981 78.9919 214.592 79.6909 215.825 79.3272C217.587 78.8085 218.919 79.743 220.371 80.3588C220.954 81.7285 220.866 82.3018 219.809 83.1175C219.341 83.4787 219.089 84.0074 218.645 84.3717C218.484 84.5081 218.299 84.5981 218.098 84.6553C217.972 84.6923 217.842 84.7176 217.713 84.7376C217.226 84.8375 216.788 85.0656 216.335 85.2599C214.997 85.8357 214.969 85.8459 214.329 84.4803C214.077 83.9401 213.764 84.1427 213.469 84.3098C212.886 84.6394 212.329 85.0161 211.759 85.3694C211.162 85.7408 210.487 85.9633 209.894 85.4153C209.309 84.874 209.392 84.1865 209.808 83.5826C210.171 83.0564 210.073 82.6812 209.765 82.1389C209.287 81.2992 208.769 80.4378 208.708 79.4212C208.671 78.8042 208.409 78.7981 207.917 79.0583C206.407 79.8588 206.399 79.8415 205.356 78.4308C204.252 76.938 203.753 76.6961 202.668 77.1347C202.49 77.2062 202.377 77.3331 202.383 77.5379C202.616 78.4747 203.029 79.3482 203.307 80.2668C203.495 81.6553 204.063 82.5688 205.672 82.6493C206.688 82.7005 207.479 83.7005 208.67 83.4815C209.112 83.4006 209.152 84.0265 209.033 84.4426C208.923 84.8336 208.657 85.1557 208.515 85.5329C208.061 86.7377 208.55 87.7406 209.767 88.1085C209.895 88.1281 210.019 88.1613 210.142 88.2028C210.397 88.2939 210.63 88.4302 210.851 88.5838C211.58 89.0898 212.045 88.8528 212.208 88.0449C212.353 87.3252 212.753 86.8597 213.358 86.4877C215.235 85.3334 215.498 85.418 216.297 87.5226C215.823 90.0297 214.208 91.6832 212.16 92.9956C211.857 93.1894 211.417 93.247 211.116 93.0734C210.022 92.4431 208.869 92.7205 207.717 92.6877C206.372 92.6497 205.413 91.807 204.673 90.72C204.403 90.3227 204.193 89.7711 203.554 89.9933C202.979 90.1934 202.937 90.7318 202.987 91.2288C203.047 91.8164 202.774 92.3692 202.865 93.1407C204.255 92.6092 205.392 92.8544 206.188 94.1945C206.474 94.6787 207.064 94.532 207.556 94.4343C208.259 94.2965 208.945 94.0454 209.666 94.0313C210.646 94.0117 211.083 94.6023 210.759 95.5153C210.532 96.156 210.185 96.7753 209.589 97.1144C208.564 97.6974 207.949 98.6081 207.366 99.5693C206.46 101.062 205.601 102.597 204.083 103.587C203.556 103.932 203.614 104.653 203.128 105.015C202.255 105.577 201.66 105.065 200.986 104.544C199.495 103.392 201.081 102.582 201.428 101.539C199.703 102.245 198.26 104.417 198.465 105.802C198.887 105.797 198.884 105.4 199.039 105.164C199.437 104.555 199.986 104.34 200.659 104.579C201.287 104.802 201.526 105.338 201.512 105.968C201.495 106.766 201.202 107.448 200.561 107.96C200.313 108.158 200.046 108.38 200.279 108.739C200.525 109.118 200.897 109.087 201.232 108.906C202.352 108.302 203.683 108.011 204.393 106.785C204.58 106.461 204.922 106.315 205.282 106.232C205.544 106.172 205.869 106.155 205.996 105.908C206.986 104 208.909 103.05 210.367 101.624C210.711 101.259 211.114 100.997 211.612 100.899C212.323 100.872 212.887 100.59 213.338 100.023C214.829 98.1502 216.861 97.0445 219.019 96.1435C219.41 95.9807 219.702 95.7546 219.964 95.4357C220.802 94.4137 221.829 93.6436 223.097 93.2281C223.455 93.1104 223.722 92.9053 223.937 92.6017C224.756 91.4507 225.893 90.6557 227.033 89.8644C228.448 89.1839 229.581 88.0387 231.034 87.4173C231.764 87.1536 232.145 86.3471 232.944 86.1891C233.072 86.1735 233.2 86.1835 233.327 86.2117C234.285 86.7243 235.028 87.5382 236.284 87.6204C237.431 87.696 237.998 87.051 238.706 86.4775C238.903 86.3175 238.919 86.0995 238.798 85.8777C238.755 85.7997 238.688 85.7349 238.646 85.6574C237.337 83.2335 236.834 83.4215 239.633 81.4801C241.047 80.8436 241 80.8659 241.636 82.2191C241.972 82.9348 242.886 82.9661 243.486 83.3976C243.646 83.5137 243.84 83.1926 243.938 82.9915C244.101 82.6619 243.954 82.4299 243.743 82.1536C242.896 81.0472 242.936 80.9649 244.276 80.6001C244.295 80.5949 244.525 80.8656 244.388 80.4845C244.056 79.5646 244.432 79.2427 245.434 79.3221C246.24 79.3859 246.713 80.1356 247.638 80.2868C247.565 79.6768 247.178 79.4638 246.772 79.2252C245.417 78.4315 245.395 77.8991 246.644 76.8443C246.766 76.7908 246.894 76.7611 247.027 76.7506C248.183 76.9733 249.369 77.085 250.441 77.6397C250.888 78.7222 250.965 79.9192 251.481 80.9799C251.865 81.4341 252.217 81.0411 252.573 80.9353C253.49 80.6628 254.294 80.8965 254.888 81.6036C255.379 82.1883 255.445 82.8172 254.652 83.2961C253.184 84.1828 253.08 84.9354 254.186 86.3265C254.358 86.5425 254.529 86.7396 254.797 86.8268C255.366 87.0249 255.958 86.9254 256.537 86.9803C257.845 87.1035 258.255 87.726 257.826 88.9575C257.704 89.3084 257.641 89.6355 257.7 90.0048C257.909 91.312 258.118 91.4268 259.313 90.8542C260.611 90.2324 261.252 90.4603 261.568 91.843C261.791 92.8196 262.583 92.6787 263.209 92.9797C263.192 92.3756 262.982 91.7319 263.618 91.3828C264.281 91.0198 264.702 91.5413 265.146 91.9102C265.459 92.1701 265.801 92.3867 266.141 92.6049C267.111 93.2273 267.702 94.0488 267.705 95.2591C267.707 96.0871 268.014 96.825 268.759 97.428C268.211 96.4965 268.303 95.8325 269.311 95.3594C269.896 95.085 269.502 94.6804 269.201 94.412C268.895 94.1384 268.448 94.1276 268.103 93.9115C267.702 93.6593 267.377 93.3479 267.47 92.8248C267.645 91.8325 267.339 90.8508 266.489 90.1387C265.819 89.5775 265.247 88.9368 264.891 88.1636C264.531 87.381 264.037 87.074 263.197 87.2284C262.688 87.3217 262.223 87.1263 261.673 86.7504C261.846 87.1861 262.133 87.5288 261.837 87.8769C261.569 88.1919 261.206 88.1639 260.84 88.1184C259.743 87.9828 258.711 87.7464 258.095 86.6744C257.847 86.2408 257.362 86.0164 257.04 85.6381C256.781 85.3291 256.575 84.98 256.307 84.6747C255.91 84.2195 255.894 83.6558 256.421 83.4156C258.012 82.6924 257.364 81.5612 257.07 80.4685C256.949 80.0184 256.464 79.5702 256.903 79.102C257.372 78.6007 257.962 78.7078 258.512 79.0107C258.986 79.2718 259.249 79.051 259.504 78.6722C260.482 77.2173 262.28 77.1388 263.611 76.2684C263.831 76.1243 264.142 76.2181 264.398 76.3103C265.523 76.7164 266.657 76.8011 267.837 76.5501C268.661 76.3752 269.349 76.6773 269.32 77.6139C269.28 78.9141 270.18 79.4294 271.084 79.8972C272.512 80.635 272.605 81.0565 271.39 82.0022C269.958 83.1149 269.976 83.7856 271.457 84.8685C271.603 84.9752 271.776 85.1702 271.918 85.0228C273.121 83.7813 274.342 84.7587 275.557 84.9701C275.684 85.0022 275.806 85.0481 275.925 85.1C276.17 85.1631 276.409 85.5254 276.634 85.2986C276.842 85.0886 276.641 84.7981 276.417 84.6239C275.685 84.0579 275.011 83.5474 276.153 82.6689C276.579 82.3405 276.087 81.8531 275.93 81.4539C275.776 81.0592 275.329 80.6606 275.747 80.2407C276.076 79.9102 276.503 80.1062 276.877 80.2912C277.111 80.4064 277.389 80.6183 277.598 80.3408C277.835 80.0276 277.595 79.7617 277.38 79.517C276.968 79.048 275.97 78.8481 276.351 78.004C276.7 77.2316 277.66 77.3101 278.376 77.1536C279.638 76.8782 280.327 77.9165 281.097 78.6109C281.659 79.1173 282.187 79.6654 282.765 80.1658C284.15 81.3637 284.593 83.0176 284.676 84.7492C284.716 85.5852 284.245 86.0471 283.263 85.8268C281.798 85.4986 280.959 86.4941 281.519 87.9093C281.867 88.7878 281.472 89.7028 281.807 90.5576C281.808 90.6864 281.787 90.8114 281.751 90.9348C281.373 91.7935 280.674 92.0399 279.794 91.8612C279.697 92.5444 279.905 93.2079 279.396 93.7052C278.712 94.3277 278.012 94.9461 277.15 95.2968C276.325 95.6331 276.248 96.5673 275.62 97.043C273.387 99.0074 270.66 100.362 268.688 102.646C267.622 102.778 267.27 103.772 266.6 104.383C266.192 104.645 265.755 104.866 265.433 105.244C264.92 105.649 264.372 105.992 263.741 106.183C263.299 106.502 263.463 107.187 262.966 107.474C261.749 108.057 261.128 109.258 260.193 110.133C259.73 110.493 259.364 110.962 258.88 111.297C258.795 111.394 258.701 111.483 258.601 111.565C257.755 112.04 257.236 112.867 256.532 113.497C256.441 113.59 256.343 113.675 256.24 113.755C255.402 114.392 254.69 115.159 253.993 115.943C253.415 116.418 252.884 116.94 252.382 117.493C249.667 119.544 247.474 122.143 245.02 124.469C244.171 125.274 243.334 126.057 242.211 126.455C242.106 126.532 241.997 126.604 241.888 126.673C241.611 126.837 241.457 127.114 241.261 127.356C240.506 128.293 240.444 128.289 239.88 127.263C239.756 127.037 239.694 126.69 239.346 126.832C239.048 126.954 239.079 127.3 239.167 127.541C239.755 129.134 238.89 130.282 238.016 131.434C237.816 131.719 237.591 131.973 237.252 132.094C236.408 132.757 235.626 133.518 235.005 134.36C233.748 136.067 232.093 137.352 230.606 138.813C229.946 139.461 229.057 139.8 228.342 140.446C226.831 141.813 226.373 143.83 225.03 145.286C224.31 146.066 223.571 146.87 223.06 147.828C222.827 148.407 221.571 148.618 221.935 149.025C222.476 149.63 222.958 148.594 223.465 148.285C224.33 147.757 225.226 147.27 226.015 146.621C226.299 146.429 226.605 146.356 226.942 146.446C227.684 147.035 228.325 147.287 228.636 146.033C228.758 145.542 229.129 145.202 229.549 144.928C229.652 144.855 229.76 144.791 229.872 144.733C230.316 144.513 230.79 144.273 231.273 144.504C232.099 144.899 232.494 144.546 232.811 143.814C233.167 142.989 233.681 142.264 234.44 141.743C235.06 141.23 235.75 141.24 236.471 141.47L236.475 141.496C237.296 141.071 238.096 140.419 239.032 141.273C239.263 141.551 239.355 141.892 239.397 142.235C239.506 143.128 239.925 142.941 240.416 142.548C240.593 142.464 240.774 142.445 240.962 142.504C241.679 142.974 241.536 143.608 241.134 144.125C240.646 144.752 240.553 145.393 240.665 146.133C240.754 146.73 240.499 147.268 240.32 147.822C240.098 148.513 240.358 149.084 240.979 149.408C241.565 149.714 241.902 149.402 242.269 148.873C242.944 147.895 244.138 147.99 245.393 149.059C245.818 148.648 245.68 147.952 246.102 147.558C246.278 147.343 246.493 147.173 246.709 147.001C247.221 146.64 247.793 146.616 248.386 146.703C249.112 147.207 249.982 147.497 250.596 148.167C251.083 149.258 251.904 149.804 253.12 149.746C253.335 149.735 253.596 149.771 253.77 149.888C254.922 150.663 256.047 150.691 257.263 149.989C257.865 149.641 258.397 150.008 258.713 150.579C259.001 151.102 259.155 151.714 258.99 152.269C258.621 153.517 258.497 154.801 258.294 156.074C257.98 156.658 257.546 157.182 257.531 157.906C257.521 158.433 257.231 158.908 256.776 159.11C254.697 160.034 253.543 162.022 251.809 163.338C251.464 163.599 251.038 163.807 250.838 164.39C252.438 163.695 253.738 162.658 255.226 161.964C255.96 161.621 256.673 161.265 257.466 161.086C257.957 160.975 258.398 160.808 258.695 160.352C259.305 159.419 260.083 159.36 261.012 159.906C261.947 160.456 262.855 160.116 263.128 159.227C263.838 156.916 265.68 155.896 267.58 154.876C268.994 154.467 270.02 153.17 271.595 153.124C272.95 151.452 275.152 151.15 276.793 149.929C277.622 149.311 278.577 148.858 279.671 149.056C280.332 149.175 280.894 148.917 281.503 148.776C282.336 148.583 282.304 147.938 282.421 147.338C282.465 147.11 282.601 146.887 282.814 146.821C284.133 146.417 285.035 145.195 286.541 145.078C287.406 145.011 288.115 144.25 288.793 143.734C290.492 142.443 292.501 141.797 294.337 140.805C295.053 140.419 295.714 140.004 296.332 139.495C297.516 138.705 298.706 137.959 300.206 137.898C300.74 137.876 301.161 137.454 301.618 137.188C301.726 137.119 301.837 137.06 301.951 137.004C302.633 136.818 302.784 135.826 303.634 135.894C303.856 135.93 304.059 136.022 304.269 136.097C306.195 136.794 307.637 136.186 308.922 134.522C309.669 133.555 310.507 132.527 311.812 132.161C312.56 131.897 313.331 131.446 313.926 132.431C314.021 132.587 314.189 132.691 314.38 132.653C316.525 132.232 318.71 132.333 320.874 132.162C320.966 132.154 321.036 132.088 321.09 132.014C321.092 131.912 321.038 131.862 320.929 131.847C320.32 131.759 319.53 131.801 319.451 131.002C319.353 130.006 320.373 129.954 320.964 129.549C321.532 129.152 322.187 129.002 322.856 128.908C323.821 128.774 324.652 128.971 325.096 129.955C325.234 130.258 325.47 130.432 325.726 130.62C326.241 130.998 326.194 131.522 325.588 131.546C323.998 131.607 323.351 133.249 321.64 133.43C323.828 134.352 325.047 136.027 326.662 137.187C327.043 137.459 327.178 137.922 327.265 138.362C327.479 139.445 328.137 139.493 328.958 139.095C329.841 138.668 330.688 138.165 331.654 137.929C332.31 138.025 332.725 138.385 332.74 139.061C332.754 139.745 332.459 140.258 331.75 140.456C331.465 140.536 331.088 140.537 331.21 141.014C331.795 141.724 333.091 142.252 331.641 143.432C333 143.918 334.26 144.398 334.227 145.931C334.208 146.848 333.502 147.314 332.577 147.365C331.935 147.403 331.334 147.59 330.757 147.866C330.243 148.011 329.686 148.255 329.241 147.795C328.708 147.243 329.221 146.717 329.58 145.851C328.169 146.577 327.068 146.234 325.984 145.664C325.437 145.377 325.068 145.693 324.768 146.159C324.258 146.952 324.291 147.871 324.123 148.742C324.031 149.219 324.355 149.387 324.764 149.387C325.744 149.386 326.596 149.755 327.416 150.246C327.733 150.436 328.143 150.584 328.434 150.345C329.217 149.703 330.268 149.644 331.062 149.054C331.547 148.61 332.117 148.321 332.733 148.115C334.126 147.702 335.118 146.904 335.367 145.388C335.748 144.896 336.26 144.593 336.828 144.37C338.878 144.267 339.565 144.91 339.513 146.883C339.505 147.201 339.515 147.508 339.774 147.743C340.046 148.007 340.377 148.206 340.617 148.506C341.018 149.805 340.889 149.955 339.591 150.389C338.974 150.596 337.92 150.247 337.917 151.452C337.818 152.381 337.494 153.284 337.601 154.236C337.652 154.693 337.766 155.241 338.242 155.311C338.853 155.402 338.86 154.772 338.924 154.363C339.04 153.625 339.543 153.202 340.063 152.771C341.243 151.674 343.03 151.71 344.198 150.557C344.446 150.312 344.873 150.463 345.156 150.733C345.212 151.178 345.544 151.005 345.794 151.01C346.741 151.099 346.904 149.884 347.764 149.83C348.481 149.757 348.87 150.066 348.892 150.958C349.401 150.539 349.801 149.997 350.494 150.212C351.107 150.403 351.457 150.844 351.665 151.412C351.995 152.317 352.84 151.809 353.405 152.064C354.259 152.662 353.819 153.231 353.305 153.696C352.102 154.786 351.12 156.132 349.441 156.663C348.572 156.937 348.489 158.454 349.154 159.181C349.438 159.491 349.627 159.243 349.841 159.13C350.409 158.828 350.771 158.313 351.159 157.825C351.241 157.728 351.332 157.642 351.424 157.556C351.772 157.272 352.01 156.872 352.391 156.623C352.966 156.247 353.577 156.06 354.066 156.701C354.417 157.16 354.715 157.272 355.158 156.873C355.43 156.627 355.757 156.376 355.559 155.973C355.284 155.414 354.801 155.658 354.373 155.757C354.242 155.788 354.113 155.83 353.979 155.849C353.619 155.898 353.222 155.963 352.999 155.602C352.747 155.192 352.928 154.666 353.243 154.519C354.371 153.994 354.989 152.446 356.572 152.837C357.135 152.659 357.79 152.4 358.137 153.063C358.561 153.871 359.656 154.532 358.938 155.68C358.571 156.265 358.403 156.898 358.329 157.571C357.933 159.318 356.494 160.219 355.295 161.316C354.352 161.917 353.378 162.08 352.238 161.851C351.17 161.635 350.081 162.085 348.978 162.135C347.925 162.183 347.948 163.991 349.014 164.974C349.469 165.394 350.051 165.703 350.113 166.417C350.133 166.641 350.12 166.862 350.076 167.081C349.577 168.698 348.319 169.741 347.153 170.827C346.41 171.52 346.043 171.29 345.319 169.834C344.901 170.104 345.077 170.675 344.738 170.976C344.11 171.444 343.574 172.049 343.73 172.843C344.013 174.278 343.36 175.199 342.314 175.988C340.892 176.002 340.722 177.35 340.047 178.143C337.758 180.836 335.133 183.186 332.552 185.583C332.205 185.906 331.66 186.221 332.099 186.785C332.529 187.335 333.092 187.723 333.851 187.325C334.094 187.197 334.227 186.948 334.428 186.768C334.982 186.379 335.499 186.441 335.983 186.897C336.999 189.16 336.839 188.705 338.728 187.757C340.757 186.739 342.655 185.394 345.009 185.152C345.143 185.137 345.332 185.14 345.385 185.041C346.236 183.448 348.046 183.169 349.319 182.157C349.882 181.706 350.542 181.454 351.216 181.231C352.147 181.09 352.887 180.406 353.835 180.309C355.083 180.487 356.286 179.604 357.552 180.151C358.09 180.367 358.14 181.091 358.718 181.267C358.956 181.35 359.176 181.464 359.376 181.616C360.77 182.583 360.996 183.853 360.458 185.395C360.157 186.259 359.601 186.712 358.752 186.524C357.813 186.316 357.687 185.562 357.903 184.719C357.964 184.482 358.187 184.241 357.873 183.917C357.337 184.487 356.836 185.148 355.915 185.059C355.698 185.038 355.451 185.141 355.445 185.428C355.438 185.769 355.61 186.126 355.9 186.193C357.629 186.597 358.456 187.884 359.141 189.343C359.253 189.584 359.426 189.853 359.74 189.795C360.182 189.713 360.194 189.307 360.267 188.959C360.676 187.013 361.573 186.271 363.67 186.13C363.838 186.203 364.045 186.293 364.078 186.459C364.271 187.404 364.673 187.829 365.749 187.526C366.377 187.349 366.638 188.044 366.244 188.74C365.641 189.806 364.313 190.142 363.144 189.523C363.051 189.562 362.98 189.636 362.998 189.732C363.296 191.357 363.054 192.708 361.299 193.405C360.893 193.566 360.911 193.978 361.224 194.299C361.723 194.812 361.999 195.506 362.635 195.914C363.133 196.234 363.681 196.702 363.213 197.323C362.767 197.915 362.101 197.777 361.526 197.361C361.313 197.207 361.155 196.972 360.808 196.851C360.376 197.776 360.892 198.616 360.971 199.459C361.014 199.922 361.425 199.757 361.718 199.627C362.129 199.447 362.535 199.249 362.986 199.189C363.405 199.133 363.93 199.126 363.972 199.625C364.068 200.768 364.969 200.729 365.708 200.96C366.48 201.277 366.919 201.842 367.006 202.678C367.034 202.945 367.069 203.251 367.283 203.414C368.724 204.51 368.413 205.77 367.676 207.085C367.612 207.201 367.584 207.336 367.55 207.466C367.401 207.784 367.246 208.099 367.219 208.459C366.97 209.109 366.509 209.655 366.545 210.446C366.57 210.964 366.106 211.367 365.687 211.735C364.72 212.583 363.752 213.435 362.907 214.412C362.783 214.543 362.643 214.662 362.485 214.741C361.168 215.401 359.933 216.132 359.652 217.762C359.638 217.843 359.571 217.942 359.498 217.977C357.481 218.986 357.129 221.288 355.748 222.79C355.078 223.311 354.723 224.081 354.212 224.728C351.257 228.594 348.438 232.557 345.622 236.52C345.544 236.642 345.457 236.761 345.366 236.874C342.878 239.674 340.961 242.958 338.12 245.467C337.871 245.687 337.782 246.086 337.625 246.701C339.486 245.257 341.184 243.993 342.778 242.592C344.47 241.644 345.81 240.203 347.485 239.231C348.785 238.846 349.578 237.736 350.642 237.012C351.89 236.162 352.911 235.003 354.563 234.788C355.261 234.697 355.625 233.869 356.078 233.335C356.646 232.664 357.285 232.139 358.09 231.806C358.338 231.703 358.637 231.655 358.807 231.448C360.513 229.371 363.012 228.276 364.95 226.484C365.975 225.536 367.393 225.182 368.462 224.285C368.685 224.013 368.941 223.78 369.265 223.632C371.312 222.522 373.165 221.106 375.16 219.913C375.643 219.623 376.103 219.016 376.698 219.491C377.258 219.938 376.905 220.57 376.71 221.108C376.572 221.485 376.534 221.951 376.242 222.213C375.365 222.996 375.51 223.954 375.671 224.933C375.643 225.139 375.572 225.328 375.469 225.506C375.135 225.977 374.665 226.342 374.389 226.858C374.047 227.495 373.254 228.078 374.56 228.708C375.178 229.006 374.807 229.746 374.296 230.143C373.129 231.046 372.398 232.204 372.032 233.638C371.891 234.189 371.985 234.589 372.327 234.986C372.511 235.246 372.717 235.492 372.888 235.761C373.19 236.75 373.995 237.494 374.214 238.531C374.502 239.888 374.252 240.19 372.934 239.866C372.455 239.748 372.061 239.768 371.675 240.067C371.284 240.371 370.866 240.593 370.354 240.672C369.533 240.798 369.821 241.151 370.242 241.488C371.561 242.225 372.764 243.188 374.308 243.456C374.882 243.556 375.095 244.014 375.22 244.502C375.649 246.112 375.534 247.999 373.501 249.084Z" fill="url(#paint0_linear_1_2065)"/>
<defs>
<linearGradient id="paint0_linear_1_2065" x1="386.911" y1="228.623" x2="253.346" y2="-20.2885" gradientUnits="userSpaceOnUse">
<stop stop-color="#ACFB01" stop-opacity="0"/>
<stop offset="1" stop-color="#ACFB01"/>
</linearGradient>
</defs>
</svg>
